<svg height="652" viewBox="0 0 446 652" width="446" xmlns="http://www.w3.org/2000/svg"><g fill="none" transform="translate(-1)"><g fill="#fff"><path d="m128.2 4.8c39.699 33.742 79.334 67.543 119.04 101.28-1.596 3.124-2.779 6.661-4.561 9.6-1.536.81-3.532 2.734-5.279 4.08.414 1.346 1.718 1.802 2.16 3.12-.737.333-1.319-.648-1.681-.96-18.662-16.117-37.039-33.808-55.68-50.4-19.354-17.227-38.7-34.588-57.6-51.84.98-5.181 2.6-9.715 3.6-14.88z"/><path d="m122.44 20.64c38.49 34.024 78.586 70.144 115.92 104.4-3.79-.032-5.782-3.644-8.16-5.76-31.289-27.85-62.17-55.936-93.6-84.48-2.079-1.888-4.589-4.048-7.2-6.48-2.4-2.237-6.72-5.064-6.96-7.68z"/><path d="m123.16 25.2c37.25 33.712 74.835 67.082 111.6 101.28-2.061 5.539-4.188 11.012-6 16.8-36.61-34.907-72.853-70.19-108.96-105.6 1.17-4.108 2.1-8.465 3.36-12.48z"/><path d="m116.92 49.44c35.81 35.471 71.709 70.848 107.04 106.8-1.938 5.822-4.253 11.267-6 17.28-35.108-36.41-69.524-73.519-104.16-110.4.89-4.706 2.44-8.761 3.12-13.68z"/><path d="m216.76 176.16c-.594 1.433-1.458-.736-1.44-.72-3.818-3.628-7.68-8.317-11.52-12.24-22.4-22.884-44.242-46.977-66.24-70.56-8.848-9.484-18.204-18.352-26.16-28.32.204.044.226-.093.24-.24-.067-.429.227-.493.24-.24 33.711 36.277 68.656 72.037 102.24 108.72.95 1.04 2.86 1.81 2.64 3.6z"/><path d="m112.36 68.88c34.675 36.526 69.262 73.135 103.44 110.16-2.016 5.424-3.86 11.02-6 16.32-24.455-27.389-50.613-56.316-75.6-84.96-6.11-7.004-12.262-13.895-18.96-21.36-1.716-1.913-5.784-5.802-6-7.2-.222-1.435.928-4.129 1.44-6.24.66-2.736 1.2-4.913 1.68-6.72z"/><path d="m248.68 126.72c1.487 1.153 3.062 2.219 3.12 4.8-2.503.937-6.256.624-9.6.72-1.048-1.752-2.703-2.896-3.84-4.56 1.53-.629 4.434.114 6-.48.714-4.518-2.468-4-3.601-7.2.319-.241.894-.227.96-.72 2.436 2.125 4.435 4.686 7.2 6.48.48.49-.11.47-.24.96z"/><path d="m439.24 269.52c-4.9 7.74-9.95 15.33-14.641 23.28-55.48-51-110.78-102.18-165.6-153.84 2.559-6.562 5.354-12.886 7.92-19.44 57.47 49.97 115.26 99.62 172.32 150z"/><path d="m236.44 128.4c1.806 1.394 3.078 3.321 4.56 5.04-8.513 23.487-17.019 46.981-25.68 70.32-.808-2.048-3.42-3.516-3.6-5.76-.138-1.712 1.963-6.33 2.88-8.88 7.03-19.57 15.48-41.86 21.84-60.72z"/><path d="m50.44 133.44c1.91 1.53 3.777 3.103 5.52 4.8-6.114 20.447-12.403 40.716-18.72 60.96-3.896-3.213-2.461-6.611-.96-12.24 3.369-12.631 6.768-25.427 10.08-37.92 1.457-5.5 3.155-10.43 4.08-15.6z"/><path d="m247.72 133.92c-1.122 2.419.008 4.347 1.681 5.28-6.219 16.821-12.539 33.542-18.96 50.16-.947.398-1.707-1.823-3.36-1.68-1.912.166-2.103 2.159-2.64 4.32.495 2.17 3.089 2.339 3.359 4.32.337 2.462-2.692 5.054-2.88 7.92-2.593.208-5.014.585-7.92.48 8.588-23.572 17.031-47.289 25.92-70.56 1.31-.37 3.15-.21 4.8-.24z"/><path d="m249.88 134.16c2.929 1.702 7.947 6.651 11.521 9.84 3.987 3.559 7.567 7.088 10.8 10.32 7.261 7.26 15.147 13.5 22.08 20.16 14.537 13.965 29.679 27.109 43.68 40.56 14.397 13.831 29.046 27.341 43.68 40.56 12.919 11.669 25.526 23.592 38.4 35.52 1.67 1.548 3.625 3.038 4.8 5.04-.226.974-1.114 1.286-1.439 2.16-14.932-12.75-28.801-27.047-43.681-40.56-14.588-13.248-29.452-26.569-43.92-40.32-21.346-20.289-43.379-40.172-65.279-60.96-5.121-4.86-10.581-10.007-16.32-15.36-2.23-2.08-7.08-4.62-4.32-6.96z"/><path d="m300.76 145.2c-1.846-.314-2.387-1.932-3.84-2.64.55-1.77 1.027-3.613 1.44-5.52 2.143-.259 4.226-1.852 6-1.68-1.12 3.36-2.04 6.92-3.6 9.84z"/><path d="m297.16 136.8c-.334 1.666-.846 3.154-1.2 4.8-2.026-1.653-3.865-3.494-6-5.04 1.8-1.75 4.72-.06 7.2.24z"/><path d="m109.96 139.2c1.882 1.739-.591 2.844-1.68 3.84-3.367 3.082-7.001 7.312-10.56 10.08-1.488-1.607.993-2.676 1.92-3.6 3.21-3.21 6.66-7.66 10.32-10.32z"/><path d="m251.32 141.12c1.029.81 1.882 1.797 2.88 2.64-.489 2.151-1.507 3.773-2.16 5.76-1.42-.1-2.174-.867-3.36-1.2.74-2.54 1.57-4.99 2.64-7.2z"/><path d="m111.64 141.6c.517.444.634 1.287 1.2 1.68-4.358 4.122-8.364 8.596-13.2 12.24-2.104-1.314.547-2.763 2.16-4.32 3.1-2.99 7.31-7.21 9.84-9.6z"/><path d="m61.72 143.04c2.104 2.215 4.19 4.45 6 6.96-7.019 20.261-14.15 40.41-21.12 60.72-1.666-.675-3.208-3.497-4.56-5.28 6.4-20.96 13.193-41.53 19.68-62.4z"/><path d="m420.76 298.56c-4.737 7.343-9.277 14.883-14.16 22.08-.556.457-1.631-.912-2.399-1.68-51.511-51.509-104.4-102.81-155.76-154.8 2.764-5.956 5.19-12.25 7.68-18.48 55.12 50.71 109.6 102.09 164.64 152.88z"/><path d="m96.28 150.24c-6.94-3.274-14.609.997-14.64 8.4-2.331-.794-2.644-4.168-1.92-6.24 1.821-5.21 14.24-10.03 16.56-2.16z"/><path d="m140.44 147.84c2.469 2.651 4.71 5.529 6.96 8.4-.932 3.309-2.561 5.919-3.36 9.36-2.578-2.622-5.032-5.368-7.2-8.4 1.34-2.98 2.41-6.23 3.6-9.36z"/><path d="m100.84 160.32c-4.189.451-7.233 2.047-8.88 5.04-.943.257-2.348.052-3.12.48-1.502-2.497-4.516-4.046-4.8-7.2-.385-4.281 3.429-7.36 7.2-7.44 5.329-.11 7 6.55 9.6 9.12z"/><path d="m72.04 156.48c2.128 2.192 4.154 4.486 6 6.96-7.28 19.679-15.081 38.838-22.32 58.56-1.708-1.732-2.995-3.885-4.56-5.76 6.852-20.03 14.071-39.69 20.88-59.76z"/><path d="m136.12 159.12c2.582 1.658 3.775 4.705 6.24 6.479-2.359.761-5.634.606-8.4.96-.29-2.59 1.67-4.85 2.16-7.44z"/><path d="m103 162c-.757.523-.406 2.154-.48 3.36-4.002.637-5.819 3.461-7.92 6-.416-2.145-.379-4.741-.96-6.72 2.249-1.66 5.55-4.05 9.36-2.64z"/><path d="m84.28 164.16c-.76 1.16-1.386 2.455-3.12 2.64.921-.84 2.005-2.79 3.12-2.64z"/><path d="m85 165.36c.611.029.931.349.96.96-.825-.105-1.345.095-1.92.24.162-.56.797-.64.96-1.2z"/><path d="m161.56 166.56c1.245 2.035 2.351 4.21 3.6 6.24 1.88 1.946 4.755 2.504 6.72 4.32 2.33 2.153 3.327 5.738 5.52 8.16 1.54 1.701 3.668 2.958 5.28 4.32 1.684 1.422 3.104 3.117 5.04 4.32 1.516 4.084 4.039 7.161 5.52 11.28 1.596 1.308 3.183 2.771 5.04 4.56 1.348 1.299 4.104 3.162 4.32 5.04.375 3.266-2.946 6.172-3.36 9.84-2.463-2.904-3.463-6.081-5.76-9.12-2.186-2.892-5.579-4.584-7.68-7.44-2.297-3.123-3.197-7.2-5.52-10.32-2.521-3.386-7.372-5.515-10.32-9.12-1.792-2.191-2.376-5.505-4.08-7.44-2.345-2.663-7.66-4.407-10.08-7.2-1.598-1.844-1.858-4.787-3.6-6.48 2.72-.72 6.11-.77 9.36-.96z"/><path d="m91.72 167.76v.72c-1.571.926-6.884 2.355-8.16.48 2.972-.15 5.328-.91 8.16-1.2z"/><path d="m110.92 173.52c-5.779.461-8.496 3.984-11.04 7.68-1.533-1.087-2.792-2.537-3.12-4.32-1.83-9.92 12.56-12.52 14.16-3.36z"/><path d="m145.24 168c1.928 2.556 2.619 5.085 4.56 7.44 2.754 3.341 7.388 4.9 10.08 7.92 2.005 2.25 2.733 5.516 4.56 7.92 2.84 3.737 7.041 5.481 10.08 8.88 1.862 3.343 2.905 6.477 5.04 9.36 2.444 3.301 6.244 5.282 8.64 8.4 3.233 4.208 4.25 9.691 8.4 13.44-.163 1.437-1.092 2.107-1.2 3.6-1.829-.069-3.236.284-4.8.48-4.873-3.882-6.792-9.771-10.32-14.64-2.181-3.009-5.889-4.854-8.16-7.92-2.42-3.269-3.032-6.998-5.52-10.32-3.147-3.728-7.506-5.45-10.56-9.36-1.95-2.497-2.856-5.959-5.04-8.4-2.389-2.67-7.232-4.659-9.84-7.44-2.21-2.356-3.024-6.13-5.04-8.64 3.37.09 5.68-.88 9.12-.72z"/><path d="m182.92 236.16c-1.316-.037-2.585-.026-3.6.24-1.298 1.182-1.433 3.528-2.16 5.28-5.559-3.74-7.79-10.297-11.76-15.6-2.264-3.024-5.926-4.882-8.16-7.92-2.234-3.037-3.066-6.993-5.28-10.08-2.696-2.504-5.432-4.968-8.4-7.2-2.021-4.059-4.72-7.44-6.72-11.52-3.76-2.48-7.155-5.325-11.04-7.68-1.679-4.081-4.327-7.193-6-11.28 2.592.748 6.387-1.809 9.12-.96 2.295.713 3.599 6.937 5.04 8.88 2.438 3.287 7.627 4.792 10.8 8.4 2.588 2.943 3.679 6.986 6.24 9.84 3.415 3.805 7.435 5.654 10.32 8.88 1.661 3.151 2.553 6.693 4.56 9.6 2.247 3.255 6.482 4.9 8.88 8.16 2.031 2.762 2.713 6.307 4.56 8.88 1.12 1.57 2.66 2.28 3.6 4.08z"/><path d="m81.16 170.16c2.136 2.184 4.25 4.39 6 6.96-7.722 18.838-15.657 37.462-23.52 56.16-.8-1.816-4.084-3.598-4.32-5.76-.157-1.441 1.846-5.067 2.64-7.2 6.003-16.12 13.478-35.34 19.2-50.16z"/><path d="m133 170.16c2.276 2.386 5.274 5.257 5.76 8.64-3.36-1.44-4.57-5.03-5.76-8.64z"/><path d="m91.96 170.4c.143.497-.297 1.577.24 1.68-1.333.827-3.81.51-5.52.96.077-.967-1.674-1.352-1.2-1.92 2.124-.28 4.111-.69 6.48-.72z"/><path d="m77.56 172.56c-.072 1.212-.93 3.708-1.92 4.8.025-1.3.933-3.68 1.92-4.8z"/><path d="m92.2 173.52c.298.741.374 1.706.48 2.64-1.044-.004-2.159-.079-2.88.24-.656-.624-1.127-1.433-1.92-1.92 1.078-.68 2.815-.7 4.32-.96z"/><path d="m398.44 333.6c-4.36 8.119-9.458 15.502-13.92 23.521-49.753-54.003-99.605-107.92-149.28-162 2.457-6.422 5.044-12.715 7.439-19.2.214-.147.43-.29.48 0 52.01 52.31 103.29 105.35 155.28 157.68z"/><path d="m92.68 177.36c.067.812.382 1.378.24 2.4-1.33.271-3.029.171-4.32.48.343-.857.853-1.547.96-2.64.918-.2 1.926-.31 3.12-.24z"/><path d="m139.72 179.28c2.08.8 3.171 2.588 4.8 3.84-1.38-.54-3.84-2.08-4.8-3.84z"/><path d="m122.2 184.56c-2.5-.02-4.359.602-6.96.48.326-1.674 1.076-2.925 1.44-4.56 2.674-.067 6.054-1.227 6.48.96.2 1.04-.79 1.7-.96 3.12z"/><path d="m93.16 180.96c-.142 1.021.173 1.587.24 2.4-2.076.325-4.219.581-6.48.72.564-.716.793-1.767 1.2-2.64 1.676-.16 3.363-.32 5.04-.48z"/><path d="m123.88 182.88c.211.668 1.19.569 1.2 1.44h-1.44c-.17-.73.41-.71.24-1.44z"/><path d="m93.64 184.56v2.16c-2.77.27-5.435.646-8.16.96.29-.75.582-1.498.96-2.16 2.236-.48 4.807-.63 7.2-.96z"/><path d="m124.6 185.52c.055.935-.516 1.244-.72 1.92.309.971 1.238 1.322 1.44 2.4-1.471-.03-2.868.013-3.84.48.36-1.32.36-5.08 3.12-4.8z"/><path d="m127 185.52c2.715 1.285 4.694 3.306 7.2 4.8-.818 3.102-2.3 5.54-3.12 8.64-1.207-.713-1.86-1.98-2.64-3.12.181-1.499.836-2.524 1.2-3.84-.703-1.857-2.09-3.029-3.12-4.56-.18-.98.77-.83.48-1.92z"/><path d="m121.72 185.76c-.58 1.581-1.266 3.054-1.68 4.8-2.45-.261-4.759.801-6.48.48-.506-1.683.648-3.413 1.2-4.8 2.6.12 4.36-.6 6.96-.48z"/><path d="m267.4 186.96c.619 2.034-.787 6.053-.96 8.88-1.691-2.1-5.437-3.209-4.08-6.96 1.57-.75 3.59-1.05 5.04-1.92z"/><path d="m93.88 187.92c-.08.959.428 1.332.24 2.4-3.148.305-6.943 1.199-9.84.96-.127-1.007.419-1.341.48-2.16 2.93-.51 5.938-.94 9.12-1.2z"/><path d="m258.76 188.4c.422-.483 1.582.325 2.4.24.192.833-.357.923-.24 1.68-.86-.5-1.3-1.42-2.16-1.92z"/><path d="m268.84 188.4c1.704 1.336 2.932 3.148 4.8 4.32-.507 1.493-.847 3.153-1.199 4.8-1.955.034-3.084-.756-4.801-.96.22-2.9.96-5.28 1.2-8.16z"/><path d="m233.08 188.64c.955-.155.965.635 1.92.48-.387 1.373-1.053 2.467-1.439 3.84-.796-.084-1.042-.719-1.44-1.2.26-1.1.8-1.92.96-3.12z"/><path d="m383.56 362.64c-25.935-27.924-52.776-56.264-78.96-85.68-12.646-14.208-26.583-28.097-39.6-42.72-10.962-12.315-22.839-24.962-34.56-37.68-1.881-2.041-5.523-5.071-3.36-6.96 1.629.244 3.552 3.207 5.52 5.28 11.716 12.342 23.477 25.492 34.801 37.68 27.095 29.164 52.786 57.26 79.68 86.4 11.352 12.3 22.849 25.629 34.8 37.92 1.48 1.52 4.24 3.15 1.68 5.76z"/><path d="m94.6 193.92c-3.122.558-6.447.913-9.84 1.2-.067-.812-.382-1.378-.24-2.4 3.162-.358 6.336-.704 9.36-1.2 1.007.03.159 1.92.72 2.4z"/><path d="m134.92 191.76c1.24.44 1.319 2.041 2.16 2.88-.83 2.93-2.095 5.426-2.88 8.4-.974-.787-1.604-1.916-2.4-2.88.94-2.9 2.2-5.48 3.12-8.4z"/><path d="m127 192.48c-.597 1.002-.636 2.564-1.44 3.36.309.971 1.111 1.449 1.68 2.16-5.039 1.303-10.55 4.621-9.36 10.56-1.504.297-4.737-.217-5.52.48-1.1-9.66 5.48-15.58 14.64-16.56z"/><path d="m274.6 193.92c.787.414 1.134 1.266 1.921 1.68-.378.903-1.833.728-2.4 1.44-.43-.68.39-2.16.48-3.12z"/><path d="m94.84 197.52c-2.936.664-6.182 1.019-9.6 1.2-.067-.812-.382-1.378-.24-2.4 3.143-.377 6.537-.503 9.36-1.2.994-.03.25 1.67.48 2.4z"/><path d="m31.96 195.36c2.008 2.552 3.143 5.977 5.52 8.16 1.019.139 1.113-.647 1.44-1.2 1.353.644 1.17 2.058.48 3.36 2.228 3.212 4.391 6.489 7.2 9.12.907.027 1.291-.47 1.44-1.2 1.094.927 1.257 1.498.48 2.88 2.054 3.146 4.44 5.96 6.72 8.88.989.756 1.488-.763 2.16-.24-.285.915-.638 1.762-.96 2.64 2.105 3.334 4.488 6.392 7.2 9.12 1.487.358 1.253-1.983 2.16-1.44-.284 3.052-3.702 1.3-6 1.2-8.482-10.798-17.083-21.476-25.92-31.92-.478-3.283-2.023-5.497-2.64-8.64.345-.14.585-.37.72-.72z"/><path d="m97.96 195.6c2.213 2.987 4.048 6.353 6.24 9.36-1.4 3.079-1.954 7.005-3.84 9.6-1.192-.607-.805-3.716-.96-5.28-.439-4.42-1.052-9.6-1.44-13.68z"/><path d="m153.64 195.84c-.041-.521.851-.109 1.2-.24v.96c-.9.26-.38-.9-1.2-.72z"/><path d="m138.52 197.52c1.384.696 1.506 2.654 2.64 3.6-.895.625-3.149-.109-4.08.48.5-1.34 1.17-2.51 1.44-4.08z"/><path d="m205.72 197.76c-1.308 3.972-2.764 7.796-4.08 11.76-1.339-.741-2.379-1.781-3.12-3.12 1.276-2.644 2.069-5.771 3.12-8.64z"/><path d="m95.08 198.96c.146.575.345 1.095.24 1.92-3.269.412-6.354 1.005-9.84 1.2.128-.929-.429-1.172-.24-2.16 3.604 0 6.405-.8 9.84-.96z"/><path d="m128.44 199.44c.435 2.783 1.496 5.066 3.84 6.48.326-.074.199-.601.24-.96 1.617 2.233-2.958 6.171-1.44 9.12-3.089-.209-5.163.598-8.16.48-.703-2.842-3.946-4.04-4.32-6.72-.64-4.58 4.71-8.28 9.84-8.4z"/><path d="m210.52 201.12c1.362 2.078 2.993 3.887 4.08 6.24 3.51-.33 7.099-.581 10.8-.72-14.354 37.888-28.747 75.731-42.96 113.76-5.698.542-11.576.903-17.52 1.2 15.24-40.13 30.43-80.29 45.6-120.48z"/><path d="m80.2 201.6c.608 4.752.944 9.776 1.44 14.64-2.83-.19-4.869.411-7.44.48 1.71-5.33 4.321-9.76 6-15.12z"/><path d="m232.6 201.6c49.551 53.415 99.487 107.71 148.08 161.28-4.129 7.631-8.785 14.734-13.199 22.08-47.409-54.833-94.809-109.67-142.08-164.64 2.37-6.27 4.95-12.33 7.2-18.72z"/><path d="m95.56 202.32c-.142 1.022.173 1.587.24 2.4-3.591.169-6.785.735-10.08 1.2v-2.64c3.559-.04 6.262-.94 9.84-.96z"/><path d="m143.32 203.52c-.073 1.527-.902 2.298-1.2 3.6-2.57-.01-4.498.622-7.2.48.567-1.593 1.271-3.049 1.68-4.8 2.81.41 5.64-1.36 6.72.72z"/><path d="m144.28 204.72c1.331.27 1.685 1.515 2.88 1.92-.726.554-2.476.085-3.6.24.13-.83.64-1.28.72-2.16z"/><path d="m96.04 205.92v2.4c-3.323.356-6.613.747-9.84 1.2.188-1.067-.32-1.44-.24-2.4 3.299-.46 6.616-.9 10.08-1.2z"/><path d="m106.84 207.84c.964.556 1.23 1.81 1.92 2.64 1.099.101 2.709-.309 3.12.48-1.402 1.078-4.183.777-6.48.96.36-1.48 1.06-2.62 1.44-4.08z"/><path d="m148.84 208.32c-.406 1.194-1.07 2.129-1.44 3.36-2.001.24-4.146.334-6 .72.508-1.332 1.099-2.581 1.44-4.08 2.16.29 4.64-1.02 6 0z"/><path d="m141.64 208.32c-.438 1.402-1.188 2.492-1.44 4.08-2.174.466-4.586.694-6.96.96-.38-1.487.991-2.903 1.2-4.56 2.7.14 4.75-.37 7.2-.48z"/><path d="m95.8 209.52c1.028.012.64 1.44.72 2.4-3.356.404-6.46 1.059-10.08 1.2.142-1.021-.173-1.587-.24-2.4 3.231-.37 6.573-.63 9.6-1.2z"/><path d="m113.08 211.2c.12-.73 2.606.034 3.84-.24.04.521-.852.108-1.2.24-.57.17-2.15.55-2.64 0z"/><path d="m185.32 211.44c5.483 3.156 8.597 8.683 11.52 14.4-.633-.073-.619.501-.72.96-2.424-3.176-4.19-7.009-6.24-10.56-1.61-1.37-4.1-3.08-4.56-4.8z"/><path d="m119.08 212.64c.128 3.648-4.761 2.279-7.68 2.88.169-1.111.791-1.77.96-2.88 2.46.38 5.16-1.02 6.72 0z"/><path d="m111.16 212.64c-.166 1.195-.835 1.885-.96 3.12-2.324-.164-4.089.231-6.24.24.292-.989.818-1.743.96-2.88 2.32.08 4.27-.21 6.24-.48z"/><path d="m96.28 213.12c.848.353.569 1.831.72 2.88-3.498.182-6.472.888-10.08.96-.119-.842-.358-1.562-.24-2.64 3.408-.19 6.578-.62 9.6-1.2z"/><path d="m44.2 234.48c2.515 3.512 6.629 8.335 9.84 12.48 1.49 1.923 5.146 5.153 1.68 7.2-7.654-9.969-15.282-19.731-23.04-29.76-2.519-3.256-5.636-6.251-7.44-10.08.588-.452 1.72-.36 2.4-.72 4.625 5.135 8.625 10.896 12.96 16.32-.89 2.71.77 5.52 3.6 4.56z"/><path d="m152.44 213.84c.814 1.426 1.435 3.045 2.4 4.32-1.767.142-5.234-1.022-7.68-.24-.431-.609-.744-1.336-.96-2.16 1.69-1.03 3.02-2.42 6.24-1.92z"/><path d="m145.24 218.4c-3.872 1.168-6.824 3.256-8.88 6.24.688-2.272.332-6.367-.72-8.88 3.7-1.49 8.92-1.36 9.6 2.64z"/><path d="m133.72 224.4c-22.001 1.999-44.467 3.533-66.24 5.76 1.25-3.149 2.766-6.034 3.84-9.36 18.458-1.269 41.434-3.168 59.04-4.32.339-.022.465-.273.72-.24 3.46.45 4.04 4.87 2.64 8.16z"/><path d="m26.68 220.08c1.307.934 1.883 2.597 3.12 3.6-7.582 16.979-15.144 33.976-22.56 51.12-.151-2.285-2.502-4.729-2.4-7.2.051-1.24 1.722-4.053 2.64-6 6.159-13.06 13.524-29.35 19.2-41.52z"/><path d="m161.08 228.48c-1.208-.008-2.281.119-2.88.72-.158 1.558 1.61 3.161 2.16 4.8-.97 1.59-3.281 1.839-4.32 3.36 1.213 2.547 7.097.423 9.84 1.44 2.03 2.37 3.857 4.942 3.84 9.36-6.475-.43-10.597 3.451-10.8 10.08-4.757.453-5.753-2.077-8.16-5.04-2.559-3.15-3.003-5.771-8.4-6-1.92-3.2-4.282-5.958-6.48-8.88-3.025-6.53 2.616-15.269 8.64-17.52 3.545-1.325 9.195-1.334 12 .72 2.13 1.56 2.69 4.72 4.56 6.96z"/><path d="m58.36 221.76c.535.246.189 1.607-.48 1.44-.647-.64.305-.91.48-1.44z"/><path d="m45.64 222c3.527 1.707-.239 9.958-3.12 10.8-.776-4.47 1.861-7.57 3.12-10.8z"/><path d="m48.52 225.6c1.849 1.511 3.232 3.488 4.56 5.52-2.967 1.002-3.237-1.79-4.8-2.88-.03-.99.417-1.5.24-2.64z"/><path d="m222.52 241.68c.843-3.317 2.347-5.973 3.36-9.12-2.42-.737-4.828.61-7.68.24.563-2.317 1.316-4.444 2.4-6.24 2.015-.221 4.673-.634 6.48 0 1.322.464 2.72 2.572 3.6 3.6.975 1.139 2.969 2.812 3.12 3.84.196 1.332-1.056 3.664-1.92 4.56-1.98 2.05-5.74 3.1-9.36 3.12z"/><path d="m125.32 227.52c-.419 1.182-.701 2.5-1.2 3.6-.943-1.137-2.19-1.97-2.88-3.36 1.63.19 2.55-.33 4.08-.24z"/><path d="m119.56 228c-1.026 2.973-2.202 5.798-3.12 8.88-2.325-2.019-4.401-5.486-6.48-6.96-.098-.578.438-.522.24-1.2 3.31-.05 6.04-.68 9.36-.72z"/><path d="m133.96 228c-.495 1.424-1.099 2.74-1.44 4.32-2.343-.023-4.479.161-6.48.48.38-1.62 1.252-2.748 1.44-4.56 2.32.08 4.05-.43 6.48-.24z"/><path d="m33.64 228.72c1.168 1.632 2.535 3.065 3.6 4.8-7.383 19.497-15.794 37.966-23.28 57.36-.568-1.975-3.004-3.979-3.12-6.24-.084-1.633 1.937-4.672 2.88-6.96 6.51-15.8 13.769-34.38 19.92-48.96z"/><path d="m120.28 229.2c5.281 2.401 1.408 8.074.24 12.48-1.263-1.217-2.44-2.52-3.36-4.08 1.2-2.64 2.17-5.51 3.12-8.4z"/><path d="m165.16 229.68c.393 1.768 1.848 2.473 2.16 4.32h-4.8c-.707-1.293-1.467-2.533-2.16-3.84 1.83.07 2.87-.65 4.8-.48z"/><path d="m109.48 230.88c2.065 2.416 4.15 4.81 6.24 7.2-.858 3.622-2.532 6.428-3.36 10.08-2.755-1.885-4.321-4.959-6.72-7.2 1.3-3.34 2.55-6.73 3.84-10.08z"/><path d="m132.04 233.52c-.659 1.501-1.135 3.185-1.68 4.8-2.001.319-4.137.503-6.48.48.568-1.592 1.318-3.001 1.68-4.8 2.18-.14 4.1-.54 6.48-.48z"/><path d="m132.52 234.96c.426.934.826 1.895.72 3.36h-1.68c-.03-1.47 1.04-1.84.96-3.36z"/><path d="m222.04 234.96c.125 1.758-1.305 4.184-2.16 6.48-.881 2.367-1.777 4.853-2.64 6.96-1.392.528-3.867-.026-5.28.48 1.604-4.556 3.372-8.948 5.04-13.44 1.4-.44 3.64-.04 5.04-.48z"/><path d="m168.52 235.44c.033.447.158.802.48.96-2.05 1.467-5.767.139-8.64.24.95-2.02 5.62-1.56 8.16-1.2z"/><path d="m193.72 237.6c.326 1.907-1.08 4.231-1.92 6.48-.835 2.234-1.792 4.569-2.4 6.72-3.555.125-6.84.52-10.32.72-2.528-4.774.148-8.553 1.68-12.96 4.83.19 8.61-.67 12.96-.96z"/><path d="m40.84 238.08c1.533 1.827 3.177 3.543 4.32 5.76-7.044 19.996-13.945 40.135-20.64 60.48-1.206-1.721-4.551-3.266-4.8-5.52-.16-1.447 1.829-5.328 2.64-7.68 5.879-17.05 13.071-37.19 18.48-53.04z"/><path d="m170.68 238.56c.074.955-.554 1.206-.48 2.16-.509-.691-1.207-1.193-1.44-2.16.88.18 1.33-.59 1.92 0z"/><path d="m116.68 239.28c1.01 1.23 2.096 2.384 3.12 3.6-.686 2.074-.909 4.043.96 5.04.789.286 2.04-.122 3.12-.24-.663 3.897-2.395 6.726-3.36 10.32-2.542-2.818-5.082-5.638-7.44-8.64.98-3.58 2.4-6.72 3.6-10.08z"/><path d="m135.64 241.68c.239 1.199-.745 1.175-.72 2.16-1.751.329-3.676.483-5.52.72.4-1.839 1.049-3.43 1.68-5.04 2.85-.86 3.39.78 4.56 2.16z"/><path d="m129.88 239.52c-.424 1.579-1.663 3.614-1.44 5.04-2.246.314-4.125.995-6.72.96.377-1.943 1.206-3.434 1.68-5.28 2.15-.25 4.29-.51 6.48-.72z"/><path d="m218.44 270.24c-5.991-.231-9.992 1.528-12.48 4.8-1.464-.135-2.427-.772-3.36-1.44 2.621-7.459 5.677-14.482 8.16-22.08 2.301-.579 5.428-.332 7.92-.72 1.143-2.537 2.146-5.214 3.12-7.92 3.263.063 6.112-.288 7.919-1.68.279-.039.428.053.48.24-3.91 9.61-7.92 19.12-11.76 28.8z"/><path d="m238.6 241.2c2.327 2.074 4.149 4.651 6.24 6.96-1.056 2.544-2.911 4.289-5.52 5.28-.844-2.037-1.675-4.085-3.12-5.52.64-2.4 1.52-4.56 2.4-6.72z"/><path d="m235 241.68c-.436 3.004-1.984 4.896-2.4 7.92 3.321 1.222 4.941 7.681 2.16 10.8-1.891-.604-3.754-.438-6-.24-1.205 2.474-2.316 5.043-3.359 7.68-1.388-.188-2.052.348-3.36.24 3.315-9.084 7.068-17.731 10.8-26.4h2.16z"/><path d="m104.92 242.4c2.725 1.915 4.344 4.936 6.72 7.2-.681 2.519-1.917 4.483-2.4 7.2-.99-1.867-6.135-5.26-6.48-7.92-.3-2.28 2.08-3.7 2.16-6.48z"/><path d="m172.84 242.64c.661.459 1.221 1.019 1.68 1.68-.295.899-.979 2.882 0 3.6-1.71.44-2.18-3.49-1.68-5.28z"/><path d="m48.76 249.84c1.028 1.882 4.011 3.537 4.32 5.76.242 1.742-1.481 5.36-2.16 7.68-5.002 17.105-9.734 36.46-14.64 52.56-.713.588-1.591-1.184-2.4-1.92-.996-.907-2.32-1.49-2.88-2.4 5.683-20.8 12.146-40.81 17.76-61.68z"/><path d="m175.72 259.2c-3.873-.236-6.702 2.737-5.76 5.76-12.158 2.088-10.428-17.783.96-14.4 3.03.9 5.19 3.76 4.8 8.64z"/><path d="m248.92 251.04c-1.445 2.074-3.126 3.914-4.8 5.76-.068.73.769.933.24 1.44-1.406.463-2.069-.866-2.4-2.16 3.81.05 3.93-5.88 6.96-5.04z"/><path d="m112.36 250.8c2.889 2.471 4.882 5.838 7.68 8.4-.836 2.604-1.95 4.93-2.64 7.68-1.355-1.059-2.388-2.772-3.84-4.56-1.049-1.292-3.414-3.097-3.6-4.56-.3-2.36 2.18-4.14 2.4-6.96z"/><path d="m183.88 264.72c-2.755-.525-4.823-1.736-6.24-3.6.866-1.799.518-5.32 0-7.2 3.642.042 6.761-.439 10.08-.72.279-.039.427.053.48.24-1.32 3.88-2.74 7.66-4.32 11.28z"/><path d="m152.92 259.44c-2.028.744-4.392-.246-6.72 0-.169-1.671-.69-2.99-.72-4.8 4.85-1.23 5.05 2.92 7.44 4.8z"/><path d="m252.52 257.04c-1.202.559-2.406 1.115-4.32.96-.789-1.758 1.127-2.432 1.68-3.6 1.37.39 1.58 1.94 2.64 2.64z"/><path d="m244.84 258.72c1.136 5.446-1.035 14.085-.24 19.2-.851.05-.474-1.126-1.439-.96.021-.62 1.027-.253.72-1.2.184-5.496.47-10.89.72-16.32.28-.04.2-.44.24-.72z"/><path d="m256.12 259.92c6.585 6.935 12.516 14.524 18.96 21.6-2.865-.118-5.616.45-7.92-.24-2.721-.814-5.091-6.287-7.2-7.92-2.832-.047-4.505-1.255-5.52-3.12-.013-1.053.653-1.426.96-2.16-.188-1.093-1.297-1.264-1.681-2.16.58-2.22 1.91-3.69 2.4-6z"/><path d="m143.08 260.4c3.421.099 6.815.225 10.08.48.204 1.716.994 2.846.96 4.8-3.283.237-6.506.534-9.84.72-.24-2.16-.98-3.82-1.2-6z"/><path d="m175.72 261.12c1.324 2.516 3.405 4.275 6.48 5.04-1.985 1.375-3.672 3.048-5.04 5.04-2.286-2.194-4.206-4.754-5.76-7.68.68-1.56 1.88-2.6 4.32-2.4z"/><path d="m250.6 261.6v1.2c-1.354.245-2.217.982-3.119 1.68-.25-1.34.94-3.18 3.12-2.88z"/><path d="m230.68 262.8c1.36-.16 2.182.219 3.12.48-.843 1.637-1.377 3.583-2.16 5.28-.917-.362-1.994-.565-2.88-.96.45-1.79 1.3-3.18 1.92-4.8z"/><path d="m242.68 262.8c-.197 4.283-.399 8.561-.72 12.72-4.21-1.517-6.524-8.256-3.6-12.72 1.7-.25 3.13.47 4.32 0z"/><path d="m249.64 264.96c1.343.897 2.404 2.076 3.601 3.12-.146.735-.51 1.25-.72 1.92.891 2.948 3.023 4.656 6.479 5.04 1.683 2.237 3.788 4.052 5.28 6.48-6.079 2.336-13.383-.312-17.76-2.64-.441-3.589.03-8.413.239-12.72.94.28 2.83.13 2.88-1.2z"/><path d="m158.44 266.16c4.182-.575 6.406 11.294 1.68 11.76-4.2.41-6.91-11.04-1.68-11.76z"/><path d="m169 268.32c.104-.537 1.183-.097 1.68-.24.095 1.025 1.062 1.178 1.2 2.16-1.5-.1-1.85-1.35-2.88-1.92z"/><path d="m443.8 270.48c-9.251 15.164-19.862 31.254-29.76 47.04-1.621 2.585-3.035 6.66-6 6.72-.845-2.474 1.479-4.401 2.64-6.24 3.646-5.772 7.508-12.181 11.28-18 .843-.042.789.811 1.44.96 1.414-1.626 2.629-3.451 4.079-5.04-.281-.999-1.562-.998-1.68-2.16 5.479-7.962 10.393-16.488 15.84-24.48 1.13-.01 1.32.92 2.16 1.2z"/><path d="m164.2 270.24c3.34.1 3.97 2.91 6.24 4.08 3.617.177 6.491-.389 10.08-.24-.455.906-.734 1.986-1.2 2.88-1.806-.045-2.948.572-4.8.48-.83 4.05-2.639 7.121-3.36 11.28.867.436 2.648.008 3.6-.24.488.427-.597 1.31-.48 2.16-2.126.114-4.736-.256-6.48.24 1.077-4.683 2.711-8.809 3.6-13.68-1.95-2.77-5.9-3.54-7.2-6.96z"/><path d="m234.76 270.96c.311.65.834 1.086.96 1.92-.54-.39-1.65-1.06-.96-1.92z"/><path d="m223.24 300c-.348-.864 1.723-2.843 2.16-4.08 3.157-8.938-3.303-19.394-6.72-23.28 4.08.011 6.292-1.14 9.36-.96 10.234.599 14.62 21.204 6.96 26.64-2.91 2.07-7.48.69-11.76 1.68z"/><path d="m218.2 300.48c-7.395-.477-11.984-9.743-12-18-.009-4.749 3.911-11.381 9.36-8.88 6.42 2.95 12.44 22.95 2.64 26.88z"/><path d="m164.2 317.52c-1.183 2.429-2.154 6.31-4.56 6.72-1.678-5.198-6.963-7.177-10.08-11.04-2.218-2.75-2.982-6.388-5.04-9.6-5.306-4.374-11.397-7.962-13.92-15.12-5.004-3.556-10.98-6.139-12.96-12.72 1.932.32 5.656-1.378 7.92-.72 1.872.544 2.358 3.877 3.84 5.52 1.738 1.927 4.958 2.431 6.96 4.32 1.74 1.643 2.736 4.552 4.56 6.72 2.9 3.448 7.76 5.445 10.32 8.64 2.287 2.854 3.188 6.852 5.28 9.84 2.28 3.26 5.5 4.46 7.68 7.44z"/><path d="m110.68 276.48c1.714 1.915 2.371 4.779 4.08 6.72 2.686 3.051 7.165 4.442 9.84 7.44 1.982 2.221 2.979 5.211 4.8 7.44 2.672 3.272 6.174 5.064 9.12 7.92 1.917 2.908 2.632 5.746 4.56 8.4 2.363 3.252 6.484 5.05 8.88 8.16 2.051 2.663 2.55 6.055 5.04 8.64.025 2.426.122 4.922-.48 6.721-3.489 1.389-6.047-3.071-7.92-6-1.64-2.564-2.865-5.041-4.56-7.2-1.865-2.376-6.004-4.877-7.68-6.96-1.803-2.241-3.09-6.547-5.04-9.12-2.661-3.51-7.458-5.614-10.32-9.12-2.093-2.563-3.043-5.297-4.8-7.68-5.766-3.994-11.43-8.09-14.4-14.88 3.28.16 5.54-.7 8.88-.48z"/><path d="m238.36 276.72c6.049 3.721 14.009 9.866 25.2 7.68-7.464 15.256-15.084 30.356-22.561 45.6-8.557 4.849-21.637.344-25.92-6.96-1.011-1.724-2.008-4.421-1.92-6.24.111-2.293 1.837-5.041 2.88-7.2 1.086-2.25 2.501-4.33 3.36-6.72 5.181-1.056 10.207-.308 14.4-1.44 9.04-2.44 9.06-17.49 4.56-24.72z"/><path d="m201.16 276.96c2.775 1.177 2.356 3.456 2.64 7.2.664 8.755 4.625 17.072 12.96 18.72-.692 1.788-1.625 3.335-2.4 5.04-5.54 1.5-8.039 6.042-10.08 11.04-2.071.449-3.25-1.872-4.08-3.12-2.789-4.193-5.676-8.694-8.64-12.96 3.08-8.76 6.58-17.1 9.6-25.92z"/><path d="m146.44 338.88c-1.387-.107-2.459.101-3.6.24-.538 1.622-1.04 3.279-1.68 4.8-7.483-5.078-10.691-16.508-19.2-21.36-1.352-3.608-3.773-6.147-5.04-9.84-2.996-1.804-5.183-4.417-8.16-6.24-2.67-3.642-3.324-6.785-6-10.08-2.783-3.427-7.955-4.37-10.8-7.44-1.255-1.354-1.923-3.634-2.88-5.28-.999-1.718-2.084-3.176-2.88-5.04 2.599-.601 6.075-.325 8.64-.96 2.383 1.99 2.82 5.242 4.56 7.68 2.229 3.123 7.529 4.92 10.56 8.16 2.57 2.748 3.876 6.966 6.24 9.6 2.661 2.965 7.267 4.606 9.6 7.68 1.971 2.597 2.627 6.066 4.32 8.88 2.413 3.146 5.879 4.374 8.4 7.44 1.909 2.322 2.708 5.669 4.56 8.16.97 1.31 2.58 2.13 3.36 3.6z"/><path d="m178.84 278.16c-.936 3.225-2.332 5.988-3.36 9.12-.877.163-1.745.335-2.88.24.879-3.041 1.993-5.848 2.88-8.88.93-.35 2.39-.17 3.36-.48z"/><path d="m52.36 279.12c28.241 36.88 56.035 74.203 84.24 111.12-.924 1.479-1.165 3.081-.96 4.561-1.385 3.734-2.667 7.573-4.08 11.28-25.358-34.322-51.344-71.729-77.28-107.04-1.598-2.175-4.821-5.816-5.04-7.2-.395-2.5 3.153-9.98 3.12-12.72z"/><path d="m47.56 292.56c.204-.044.227.094.24.24 27.159 37.121 53.449 75.366 80.88 112.56.743 1.008 2.086 2.115 1.92 3.601-.345.583-1.748-1.958-2.4-2.88-26.405-37.31-54.22-75.301-80.88-112.56-.102-.5.164-.64.24-.96z"/><path d="m47.8 297.12c27.461 37.898 54.572 76.15 81.84 114.24-1.374 5.026-3.769 9.031-5.52 13.681-26.755-38.766-52.737-78.303-79.2-117.36 1.092-3.39 1.716-7.24 2.88-10.56z"/><path d="m190.6 307.68c2.292 3.148 4.411 6.469 6.72 9.6-2.819 1.181-7.554.446-10.8 1.2 1.31-3.65 2.61-7.31 4.08-10.8z"/><path d="m41.56 309.12c26.936 39.625 53.595 79.524 80.4 119.28-.25 1.109-.848 1.872-.96 3.12-24.222-35.773-48.56-73.847-72.96-110.64-1.355-2.044-3.814-6.499-5.04-7.2-.632-.361-1.415-.704-2.64-.24.483-1.36.733-2.95 1.2-4.32z"/><path d="m213.4 309.36c-.702 3.271-4.296 6.25-2.4 11.04-1.318-.839-2.648-2.411-4.8-1.68.5-5.02 3.94-7.1 7.2-9.36z"/><path d="m42.28 318.96c24.584 35.965 48.262 74.237 72.96 111.12 1.356 2.025 4.653 5.738 4.8 7.199.18 1.791-1.803 5.194-2.64 7.2-1.058 2.534-2.488 4.683-2.88 6.72-25.248-39.96-50.13-80.27-75.12-120.48.968-3.91 2.127-7.63 2.88-11.76z"/><path d="m265.48 347.76c-5.569.111-10.926.435-16.561.479-1.582-1.217-2.554-3.046-3.6-4.8 1.304-2.971 1.465-7.343 1.2-12-.103-1.797-.84-3.574-.721-5.04.223-2.723 2.424-4.393 2.88-6.48 4.038-.117 7.634.158 11.04 0 1.38-.064 2.915-.597 4.32-.24 4.952 1.255 8.199 11.06 7.2 19.2-.55 4.44-3.21 6.83-5.76 8.88z"/><path d="m174.04 351.6c-.203-1.033 1.277-2.294 1.92-3.84 3.141-7.549-.675-20.351-5.76-23.76 9.146-1.017 17.712-1.79 27.36-2.4 2.898-.183 6.607-1.01 9.12-.72 7.003.81 10.499 17.766 6.96 24.72-2.199 4.322-12.884 3.562-19.2 4.08-7.68.63-13.91 1.33-20.4 1.92z"/><path d="m216.04 328.08c4.733 5.19 16.198 8.147 24.24 5.041.504 1.924-.28 4.043-.72 5.76-6.572-5.788-19.489 4.917-13.2 10.56-3.81 1.169-8.784.212-11.52-1.2 3.42-4.35 3.15-14.3 1.2-20.16z"/><path d="m244.6 328.08c1.31 4 .738 10.51 0 14.64-1.301-.619-2.437-1.403-3.119-2.64 1.233-1.69 2.125-5.862.96-8.4 1.02-.9 1.68-2.16 2.16-3.6z"/><path d="m37.48 330.96c24.67 39.601 49.354 79.603 74.16 119.28.703 1.124 1.841 2.372 1.68 3.841-25.403-40.6-50.44-81.56-75.84-122.16z"/><path d="m166.84 344.88c-3.896.113-5.447-4.419-5.76-8.16-.151-1.812.13-4.878 1.68-5.28 4.27-1.11 7.2 9.84 4.08 13.44z"/><path d="m37.96 336c24.915 39.886 49.472 80.126 74.4 120-1.773 4.467-3.81 8.67-5.52 13.199-21.884-36.837-44.938-76.278-67.2-114.24-1.369-2.334-4.149-6.084-4.32-7.681-.241-2.25 2.678-8.38 2.64-11.28z"/><path d="m233.32 339.84c2.942-.603 3.87.724 6 2.399 2.511 1.978 4.062 3.082 6 5.761 1.039 1.436 1.879 2.66 1.92 3.12.173 1.934-2.455 5.319-5.521 4.56-1.809-.448-2.631-3.417-4.8-4.8-2.534-1.616-9.715-1.688-9.84-5.521-.09-2.65 4.26-5.12 6.24-5.52z"/><path d="m155.08 340.32c-.832 3.89-2.902 8.618-4.56 12.48-2.835-.115-5.259.181-7.68.479-1.844-4.31.815-8.255 1.68-12 3.66-.18 7.28-.4 10.56-.96z"/><path d="m157.72 340.56c2.155 6.325 4.042 12.919 11.76 13.68-5.286 14.154-10.444 28.437-16.08 42.24-2.788-.357-6.237 2.237-8.88 1.92-2.956-.354-3.904-4.211-6.48-5.52 6.46-17.54 13.17-34.83 19.68-52.32z"/><path d="m230.68 353.28c3.576 5.716-2.43 8.47-9.359 7.681-6.393-.729-13.191-5.541-14.64-9.84 2.223-.02 5.105-.652 6.24-.96 4.22 3.18 12.74 1.15 17.76 3.12z"/><path d="m205.24 351.36c3.406 6.877 13.443 13.139 24 9.84-.939 4.051-3.459 7.419-5.28 11.04-1.921 3.821-3.935 11.682-8.88 12.48-7.386 1.192-17.348-4.36-20.16-9.36-3.169-5.636-.069-10.531 2.4-15.6 1.475-3.028 3.199-6.26 4.56-8.16.83-.37 2.19-.21 3.36-.24z"/><path d="m203.08 402c-1.586.414-3.02.979-4.56 1.439.603-2.838 1.543-5.336 2.16-8.16 1.564-.595 3.322-.997 4.8-1.68.58 2.28-1.97 5.53-2.4 8.4z"/><path d="m193.72 394.08c1.838.401 3.816.664 5.76.96-.505 3.255-1.503 6.016-2.4 8.88-2.023-.137-3.459-.861-5.52-.96.09-2.65 1.75-5.76 2.16-8.88z"/><path d="m192.28 394.8c-.677 2.683-1.471 5.249-2.16 7.92-2.058.422-3.509 1.45-5.52 1.92.7-2.82 1.761-5.279 2.16-8.4 2.11-.22 3.47-1.17 5.52-1.44z"/><path d="m180.04 395.52c1.844.316 3.694.627 5.52.96-.646 3.114-1.693 5.826-2.4 8.88-1.722-.518-3.715-.765-5.52-1.2.76-2.92 1.6-5.76 2.4-8.64z"/><path d="m137.8 395.76c1.929 1.751 3.805 3.555 5.76 5.28 2.716-.725 5.534-1.347 8.4-1.921-2.488 6.312-4.917 12.684-7.2 19.2-1.628-1.063-4.779-.136-4.56 2.88.109 1.511 1.804 2.356 1.92 3.36.146 1.264-1.307 4.074-1.92 5.76-4.42 12.154-10.526 27.398-14.64 38.641-.707-3.465-6.036-3.907-5.52.96-.927-.048-1.769-.009-2.4.239-.641-1.444-.469-2.812-1.2-4.56-.476-1.135-2.022-2.268-2.16-3.36-.213-1.681 1.939-5.864 2.88-8.399 6.95-18.71 14.15-40.6 20.64-58.08z"/><path d="m178.12 396c.581 1.883-1.371 5.333-1.68 7.92-2.218.182-3.61 1.189-5.28 1.92-.2-2.762 1.698-5.501 1.92-8.641 1.73-.35 3.28-.88 5.04-1.2z"/><path d="m171.88 397.2c-.772 2.988-1.623 5.898-2.4 8.881-1.87-.051-3.13-.71-4.8-.961.548-3.212 1.478-6.042 2.4-8.88 1.83.09 3.11.73 4.8.96z"/><path d="m156.04 396.72c1.029.331 2.062.658 3.12.96-.72 3.04-1.782 5.738-2.4 8.88-.539-.581-.924-1.315-1.44-1.92-.582.139-.534.906-.72 1.44-1.154-.126-2.013-.548-2.88-.961.849-2.111 1.854-4.065 2.4-6.479 1.46.17 1.43-1.13 1.92-1.92z"/><path d="m155.56 409.2c36.371 46.906 72.092 94.472 108.24 141.6-3.79 6.289-7.977 12.183-11.76 18.479-34.571-47.989-68.872-96.247-103.2-144.48 2.08-5.36 4.6-10.28 6.72-15.6z"/><path d="m142.6 419.52c.204-.044.227.094.24.24 35.156 49.229 70.845 98.848 106.32 148.56.678.95 3.205 3.983 2.16 5.04-1.062 1.073-2.9-2.846-3.601-3.84-26.07-37.041-52.519-73.33-78.72-110.4-6.511-9.212-13.587-18.942-20.64-28.8-1.773-2.478-6.492-7.842-6-9.84.1-.4.2-.53.24-.96z"/><path d="m146.2 430.32c34.28 47.958 68.537 95.949 102.48 144.24-3.937 5.583-7.495 11.544-11.279 17.28-32.641-48.722-65.084-97.631-97.68-146.4 1.92-5.28 4.46-9.94 6.48-15.12z"/><path d="m187.96 443.28c-.169 1.111-.791 1.77-.96 2.88-.797-.402-.812-1.588-1.68-1.92.44-.76 1.67-.73 2.64-.96z"/><path d="m136.6 445.92c1.322.357 1.447 1.913 2.4 2.64-.701 2.499-1.315 5.084-2.16 7.44-1.724-.356-1.497-2.663-2.88-3.36 1.04-2.08 1.83-4.41 2.64-6.72z"/><path d="m139.72 450.24c1.557 1.243 2.22 3.38 3.6 4.801-1.476.764-3.5.979-5.04 1.68-.18-1.9 1.14-4.28 1.44-6.48z"/><path d="m134.44 457.92c32.169 48.788 63.66 98.26 95.76 147.12-3.501 6.26-7.53 11.99-11.04 18.24-30.499-49.979-60.834-100.13-91.2-150.24 2.07-5.13 4.21-10.19 6.48-15.12z"/><path d="m122.2 468c.388-.068.413.227.72.239 30.545 51.461 63.026 102.98 93.84 154.56.629 1.053 3.044 3.248 1.2 4.8-.484.563-.963-.899-1.44-1.68-29.701-48.655-58.843-97.728-88.8-146.88-1.97-3.24-5.74-8.33-5.52-11.04z"/><path d="m125.32 479.04c30.5 49.419 60.38 99.46 90.48 149.28-3.523 5.757-6.837 11.723-10.8 17.04-26.391-46.325-53.244-95.38-80.4-142.56-1.518-2.638-5.173-7.26-5.28-9.36-.089-1.757 1.852-4.618 2.88-6.96 1.32-3.01 2.21-5.37 3.12-7.44z"/><path d="m266.92 552.24c-4.092 6.788-8.602 13.159-12.72 19.92-2.091-1.554.592-3.729 1.439-5.04 3.204-4.954 6.757-10.648 9.841-15.6.93-.21.85.58 1.44.72z"/><path d="m232.12 605.76c.554-.074.267.693.72.72-3.397 7.082-7.991 12.968-11.76 19.68-1.919-1.508.623-3.504 1.44-4.8 3.07-4.88 6.48-10.77 9.6-15.6z"/><path d="m216.76 630.24c.563.077.537.743.96.96-3.742 6.019-6.919 12.602-11.52 17.76.633-3.729 3.047-6.523 4.8-9.359 1.91-3.1 3.94-5.99 5.76-9.36z"/><path d="m248.44 151.44c1.87.146.27 2.186 0 2.88-.413 1.059-.773 2.523-1.2 3.6-.846 2.134-2.964 4.588-2.88 6.48.075 1.694 3.245 3.965 4.56 5.28 4.885 4.884 10.447 10.059 14.641 14.88-2.445 1.27-4.743-.752-7.44-.72-4.471-4.329-8.373-9.227-13.2-13.2-.816-.017-1.675-.075-1.92.48 1.96-5.96 4.96-14.23 7.44-19.68z"/><path d="m146.68 165.6h-1.68c1.162-2.598 2.233-5.287 3.12-8.16 2.539 1.861 3.859 4.941 6.24 6.96-1.488.672-3.603.717-5.76.72 1.667 3.693 3.612 7.108 5.52 10.56.37.127.015.25-.24.24-3.34-2.5-5.04-6.64-7.2-10.32z"/><path d="m79 168.72c.656.518-.562 1.182-.72 1.68-.488-.35.468-1.28.72-1.68z"/><path d="m118.84 174.48c1.41.91 1.654 2.985 2.88 4.08-1.094.586-3.169.191-4.32.72 0-1.12 1.2-3.12 1.44-4.8z"/><path d="m110.68 208.08c-1.299-.85-2.293-2.278-3.12-3.6-2.413-3.86-4.829-8.374-7.68-12.24-1.051-9.977 5.772-18.188 16.56-16.32-1.539 4.941-3.352 9.608-5.04 14.4.321.959.916 1.644 1.2 2.64 2.578.123 6.211-.629 9.12-.96h.48c-6.26 2.79-11.69 7.66-11.52 16.08z"/></g><path d="m126.76 0h1.68c29.816 25.481 61.557 52.458 92.16 78.48 7.501 6.379 15.098 13.122 22.8 19.68 2.307 1.964 7.191 4.674 7.439 6.96.209 1.921-1.527 4.57-2.399 6.48-1.078 2.359-2.266 4.32-2.88 6.24 2.231 2.18 5.032 4.417 6.72 6.96.225.339.78.221.96.48.634.917 1.43 2.394 1.68 3.36.407 1.571-.47 4.768 1.2 6 .845-.088.922-1.266 1.2-1.92 1.164-2.736 2.2-5.346 3.359-8.16.934-2.264 2.761-9.401 5.28-9.84 1.718-.299 4.3 2.826 5.76 4.08 5.843 5.016 11.223 9.76 16.801 14.16 2.716-1.841 6.881-.222 10.079.24 2.863-.809 7.029-4.127 9.36-1.2-.459 5.621-3.103 9.058-4.08 14.16 44.441 39.639 91.168 79.073 136.32 118.8 2.589.626 5.891 1.69 6.479 3.84.783 2.858-2.269 5.785-3.6 7.92-4.541 7.283-9.28 14.846-13.44 21.36-6.511 10.196-11.923 20.137-18.239 28.32-1.962.115-3.302 1.504-5.04.72-1.043-.47-1.675-2.926-2.4-3.84-4.269-5.377-10.576-10.096-15.84-15.36-36.277-36.276-74.483-73.696-109.92-109.44-1.959.361-3.291 1.349-5.28 1.68 2.056 2.944 4.683 5.643 7.2 8.16 18.833 18.833 37.196 37.917 55.92 56.64 21.459 21.459 42.479 43.463 63.6 65.04 2.032-.027 5.695 2.215 6 4.319.306 2.108-2.383 5.623-3.6 7.681-7.294 12.33-14.099 23.31-21.36 35.04-1.775 2.868-6.032 12.278-9.12 13.68-.91.413-2.838.869-3.6.72-1.805-.354-1.844-2.831-2.88-4.319-1.525-2.191-3.944-4.091-5.76-6.24-25.66-30.38-52.231-61.064-78.24-90.72-1.783-2.033-3.433-5.488-6.72-5.52-.638 1.904-1.146 3.967-3.601 4.32-2.095.301-4.09-.44-4.56-2.64-4.916 9.963-9.856 19.903-14.88 29.76 4.886.165 10.167-1.167 14.16 0 3.894 1.139 7.624 6.944 8.88 12.48 2.177 9.6-1.368 20.048-8.16 22.08-4.901 1.467-8.681-.017-15.601.72-1.077 4.503-4.079 7.793-8.88 7.44-3.072-.226-4.551-2.55-6-4.08-.241-.255-.445-1.134-.96-.72.499.861.125 2.595.24 3.84-2.689 5.201-4.933 9.453-7.439 14.64-2.022 4.183-4.269 11.552-8.161 13.92-8.715 5.304-24.244-3.14-27.84-9.84-1.163-2.167-2.294-6.318-1.92-9.12.468-3.508 3.813-8.428 5.28-11.279.523-1.019 1.583-2.199 1.2-3.36-7.938.462-15.575 1.225-23.28 1.92-4.273 11.034-8.889 23.149-12.96 34.08-.559 1.498-1.636 3.175-1.2 4.8 2.198 1.602 5.186-1.11 8.16-1.2 1.778-.054 3.913 1.022 6 .96 2.327-.069 4.611-1.622 6.96-1.68 2.181-.054 4.172 1.372 6.24 1.2 1.98-.165 4.479-2.258 7.44-2.4 2.217-.106 4.712 1.136 6.96.96 2.464-.192 6.512-3.525 8.64-1.68 1.819 1.577-.655 5.707-1.2 7.2-1.066 2.923-1.692 5.086-2.88 7.199-2.967.312-4.631 2.508-7.92 2.641-2.3.093-4.639-1.423-6.96-1.2-2.522.242-4.913 2.571-7.44 2.64-2.204.061-4.335-1.567-6.48-1.439-2.403.144-4.338 2.058-6.72 2.16-3.262.139-6.106-2.268-9.12-.24 7.336 10.343 15.799 21.641 24.24 31.68 1.922-.467 3.901-1.924 6.24-1.2 2.075 2.407-.618 5.544-1.2 8.16 25.062 33.5 50.75 66.368 75.84 99.84 2.151.789 4.453 2.263 4.56 4.561.072 1.545-2.1 3.998-3.36 6-7.428 11.798-14.605 22.521-22.08 34.08-2.097 3.243-3.152 6.541-7.68 6-1.704-.84-1.616-2.906-2.399-4.32-3.198-5.77-7.729-11.139-11.521-16.8-26.6-39.725-52.578-79.848-79.44-118.8-1.019.421-2.218.661-3.36.96 1.221 3.147 3.18 5.992 5.04 8.88 26.648 41.381 53.991 82.902 80.88 124.08 1.976 3.024 3.404 6.685 5.52 9.119 1.528 1.759 4.745 2.767 4.561 5.761-.075 1.223-2.236 3.927-3.36 5.76-6.08 9.921-11.353 18.372-17.52 28.32-1.463 2.359-5.004 9.975-7.68 10.8-4.456 1.374-4.088-1.647-5.28-4.32-1.39-3.115-3.72-6.196-5.52-9.359-5.469-9.612-10.909-19.666-16.32-29.04-20.193-34.984-40.114-70.48-60-105.84-1.534-2.727-5.238-7.998-5.28-9.84-.022-.947 1.112-2.997 1.68-4.319 1.92-4.472 3.978-8.905 5.52-12.96-.696-.984-1.542-1.819-1.92-3.12-1.436.211-3.518.897-5.04.24-2.544-1.296-.97-6.711-3.6-7.921-1.416 3.385-2.265 7.336-5.04 9.36-2.535-1.747-3.73-4.598-5.28-7.2-22.111-37.116-43.675-74.555-65.76-111.84-1.487-2.51-4.202-6.464-4.32-8.399-.118-1.934 1.088-4.268 1.68-6.48.479-1.79 1.663-5.356 1.68-6.72.018-1.425-.885-2.652-.72-3.84.214-1.544 1.709-2.319 2.4-3.84 1.055-2.321.771-4.338 1.68-6.24-.7.444-1.952.706-2.88.24-1.512-2.934-7.647-5.219-8.16-8.64-.261-1.738 1.042-4.768 1.68-6.96 1.94-6.659 4.769-14.575 5.76-20.4-1.319 4.275-2.683 8.077-4.32 12.72-.811 2.3-2.689 11.443-5.28 11.76-2.361.289-3.735-2.89-5.04-4.32-1.418-1.554-4.137-3.054-4.32-5.28-.117-1.417 1.263-3.999 1.92-6 1.987-6.045 4.498-12.172 6.24-17.52-.013-.252-.308-.188-.24.24-1.534 3.185-2.663 6.61-4.32 10.56-.8 1.909-2.934 9.536-5.76 9.36-1.806-.113-3.089-3.707-3.84-5.28-1.206-2.526-1.85-4.217-2.88-6.24.491-1.512 1.725-3.551 1.68-4.8-.575.827-2.008.815-3.12.48-2.167-3.673-2.733-8.947-4.32-13.2 7.456-16.064 14.726-32.314 22.32-48.24-.705-2.304-1.968-3.56-1.2-5.76.669-1.915 4.394-3.48 6.72-2.88.925.239 2.192 2.153 3.12 3.36 2.777 3.615 6.115 8.318 8.64 10.8.839-1.001 1.227-2.453 2.16-3.36-3.604-5.516-8.107-10.133-12-15.36-.019-2.515-3.455-7.198-3.12-9.84.252-1.992 3.166-3.948 4.08-6 1.824-4.095 2.838-9.849 4.32-15.36 3.581-13.318 6.727-25.596 10.32-38.88.614-2.27 1.017-6.312 3.36-6.48 2.068-.148 3.711 2.425 4.8 3.36 1.873 1.608 3.391 2.88 4.56 3.84.426.454.175 1.585.24 2.4 3.437-1.444 5.525 2.411 7.68 4.8 2.406 2.667 5.245 5.009 3.84 8.4 3.064-.8 3.308 3.7 4.8 2.88.216-10.01 15.923-16.438 22.56-8.88 1.805-1.861 3.688-3.256 5.76-5.52 1.419-1.549 3.468-5.47 6.24-5.04 1.668.258 2.692 2.912 3.36 3.84.888 1.233 2.757 2.804 2.64 4.56-.153 2.287-4.51 5.07-6.48 6.96-2.469 2.369-5.107 4.475-6.72 6.72 1.491 1.869 3.079 3.642 3.12 6.96 3.472 1.118 5.563 2.931 7.2 5.52.576.911.614 2.91 2.64 2.16-.042-.591-1.31-3.016-.24-4.32 1.995-2.431 10.702-.5 13.92-1.92 1.667-3.881 2.857-7.437 4.56-12 .94-2.521 2.985-10.731 5.76-10.8 1.637-.041 3.631 3.117 4.8 4.56 3.148 3.886 5.593 6.772 8.64 10.56 1.188 1.477 3.078 4.67 4.56 5.04 1.852.463 3.43-.874 4.8-.24 2.015 2.065 3.399 4.761 4.8 7.44 2.164 1.764 5.244 2.742 7.2 4.8 1.903 2.002 2.962 5.276 5.04 7.68 3.067 3.55 8.225 5.931 10.8 9.6 2.291 3.263 3.229 7.382 5.76 10.56 1.705-3.655 1.251-9.469 7.2-8.88-30.5-33.568-61.5-70.476-92.64-104.4-1.983-2.16-5.625-5.611-5.76-7.44-.138-1.869 1.367-4.913 1.92-7.2.67-2.768 1.214-5.229 1.68-7.44-1.394-1.777-.722-6.837 1.92-7.44 1.86-2.738 1.504-15.46 5.76-15.36 1.781.042 5.39 4.43 7.2 6.24 32.721 32.721 65.357 64.877 97.68 97.2 1.116 1.117 2.042 2.849 3.12 2.64.782-1.298 1.094-3.066 1.68-4.56-32.463-32.889-69.851-67.21-103.44-100.8-2.176-2.176-6.402-5.168-6.72-6.96-.28-1.579 1.043-4.771 1.68-7.2.586-2.234 1.84-4.929 1.92-6.96.06-1.518-.815-2.723-.48-4.32.302-1.435 1.685-2.152 2.4-3.12 1.5-4.19 2.3-13.815 5.28-16.56zm-2.16 19.68c18.9 17.252 38.246 34.613 57.6 51.84 18.641 16.592 37.018 34.283 55.68 50.4.361.312.943 1.293 1.681.96-.442-1.318-1.746-1.774-2.16-3.12 1.747-1.346 3.743-3.27 5.279-4.08 1.781-2.939 2.965-6.476 4.561-9.6-39.71-33.737-79.34-67.538-119.04-101.28-1 5.165-2.62 9.699-3.6 14.88zm4.8 8.64c2.611 2.432 5.121 4.592 7.2 6.48 31.43 28.544 62.311 56.63 93.6 84.48 2.378 2.117 4.37 5.728 8.16 5.76-37.333-34.256-77.43-70.375-115.92-104.4.24 2.616 4.56 5.443 6.96 7.68zm-9.6 9.36c36.106 35.41 72.35 70.692 108.96 105.6 1.812-5.788 3.939-11.261 6-16.8-36.765-34.198-74.35-67.567-111.6-101.28-1.26 4.015-2.19 8.372-3.36 12.48zm-6 25.44c34.636 36.881 69.051 73.99 104.16 110.4 1.747-6.013 4.062-11.458 6-17.28-35.33-35.952-71.229-71.329-107.04-106.8-.68 4.919-2.23 8.974-3.12 13.68zm100.32 109.44c-33.583-36.683-68.529-72.443-102.24-108.72-.013-.252-.308-.188-.24.24-.014.146-.036.284-.24.24 7.956 9.968 17.312 18.835 26.16 28.32 21.999 23.583 43.84 47.676 66.24 70.56 3.84 3.923 7.702 8.612 11.52 12.24-.018-.017.846 2.153 1.44.72.22-1.79-1.69-2.56-2.64-3.6zm-103.44-96.96c-.512 2.111-1.662 4.805-1.44 6.24.216 1.398 4.284 5.288 6 7.2 6.698 7.465 12.85 14.356 18.96 21.36 24.987 28.644 51.146 57.571 75.6 84.96 2.14-5.3 3.984-10.896 6-16.32-34.178-37.025-68.765-73.634-103.44-110.16-.48 1.807-1.02 3.984-1.68 6.72zm138.24 50.16c-2.766-1.794-4.765-4.355-7.2-6.48-.066.493-.641.479-.96.72 1.133 3.2 4.314 2.682 3.601 7.2-1.566.594-4.47-.149-6 .48 1.137 1.664 2.792 2.808 3.84 4.56 3.344-.096 7.097.217 9.6-.72-.059-2.582-1.633-3.647-3.12-4.8.13-.49.72-.47.24-.96zm18-6.24c-2.565 6.554-5.361 12.878-7.92 19.44 54.823 51.659 110.12 102.84 165.6 153.84 4.69-7.95 9.74-15.54 14.641-23.28-57.06-50.38-114.85-100.03-172.32-150zm-52.32 69.6c-.917 2.551-3.018 7.168-2.88 8.88.18 2.244 2.792 3.712 3.6 5.76 8.661-23.339 17.167-46.833 25.68-70.32-1.481-1.719-2.754-3.646-4.56-5.04-6.36 18.86-14.81 41.15-21.84 60.72zm-168.24-40.08c-3.312 12.493-6.711 25.289-10.08 37.92-1.501 5.629-2.936 9.027.96 12.24 6.317-20.244 12.606-40.513 18.72-60.96-1.743-1.697-3.61-3.27-5.52-4.8-.925 5.17-2.623 10.1-4.08 15.6zm196.56-14.88c-8.889 23.271-17.332 46.987-25.92 70.56 2.906.105 5.327-.272 7.92-.48.188-2.866 3.217-5.458 2.88-7.92-.271-1.98-2.864-2.149-3.359-4.32.537-2.162.728-4.155 2.64-4.32 1.653-.143 2.413 2.078 3.36 1.68 6.421-16.619 12.741-33.339 18.96-50.16-1.673-.933-2.803-2.861-1.681-5.28-1.65.03-3.49-.13-4.8.24zm11.28 6.96c5.739 5.353 11.199 10.5 16.32 15.36 21.9 20.788 43.934 40.671 65.279 60.96 14.468 13.751 29.332 27.072 43.92 40.32 14.88 13.513 28.749 27.811 43.681 40.56.325-.875 1.214-1.186 1.439-2.16-1.175-2.002-3.13-3.492-4.8-5.04-12.874-11.928-25.481-23.851-38.4-35.52-14.634-13.218-29.282-26.729-43.68-40.56-14.001-13.451-29.143-26.595-43.68-40.56-6.933-6.66-14.819-12.9-22.08-20.16-3.232-3.232-6.812-6.761-10.8-10.32-3.573-3.188-8.592-8.138-11.521-9.84-2.76 2.34 2.09 4.88 4.32 6.96zm50.16-5.76c-1.774-.171-3.857 1.421-6 1.68-.413 1.907-.891 3.75-1.44 5.52 1.453.708 1.994 2.326 3.84 2.64 1.56-2.92 2.48-6.48 3.6-9.84zm-14.4 1.2c2.135 1.545 3.974 3.386 6 5.04.354-1.646.866-3.134 1.2-4.8-2.48-.3-5.4-1.99-7.2-.24zm-190.32 12.96c-.927.924-3.408 1.993-1.92 3.6 3.559-2.769 7.193-6.998 10.56-10.08 1.088-.997 3.562-2.101 1.68-3.84-3.66 2.66-7.11 7.11-10.32 10.32zm149.04-1.2c1.187.333 1.94 1.1 3.36 1.2.653-1.987 1.671-3.609 2.16-5.76-.998-.842-1.851-1.83-2.88-2.64-1.07 2.21-1.9 4.66-2.64 7.2zm-146.88 2.88c-1.613 1.558-4.265 3.006-2.16 4.32 4.836-3.644 8.842-8.119 13.2-12.24-.566-.394-.684-1.236-1.2-1.68-2.53 2.39-6.74 6.61-9.84 9.6zm-59.76 54.24c1.353 1.783 2.894 4.605 4.56 5.28 6.97-20.31 14.102-40.458 21.12-60.72-1.81-2.51-3.896-4.745-6-6.96-6.487 20.87-13.28 41.44-19.68 62.4zm214.08-59.76c-2.489 6.23-4.916 12.524-7.68 18.48 51.362 51.99 104.25 103.29 155.76 154.8.769.768 1.844 2.136 2.399 1.68 4.883-7.197 9.423-14.737 14.16-22.08-55.04-50.79-109.52-102.17-164.64-152.88zm-176.4 6.72c-.724 2.071-.411 5.445 1.92 6.24.031-7.403 7.7-11.674 14.64-8.4-2.32-7.87-14.739-3.05-16.56 2.16zm57.12 4.8c2.168 3.032 4.622 5.778 7.2 8.4.799-3.441 2.429-6.051 3.36-9.36-2.25-2.871-4.491-5.749-6.96-8.4-1.19 3.13-2.26 6.38-3.6 9.36zm-45.6-6c-3.771.08-7.585 3.159-7.2 7.44.284 3.154 3.298 4.703 4.8 7.2.772-.428 2.177-.223 3.12-.48 1.647-2.993 4.691-4.589 8.88-5.04-2.6-2.57-4.271-9.23-9.6-9.12zm149.76 19.92c.245-.555 1.104-.497 1.92-.48 4.827 3.974 8.729 8.871 13.2 13.2 2.697-.032 4.995 1.989 7.44.72-4.193-4.821-9.756-9.996-14.641-14.88-1.314-1.315-4.484-3.586-4.56-5.28-.084-1.892 2.034-4.346 2.88-6.48.427-1.077.787-2.542 1.2-3.6.27-.694 1.87-2.733 0-2.88-2.48 5.45-5.48 13.72-7.44 19.68zm-189.84 45.12c1.565 1.875 2.852 4.028 4.56 5.76 7.239-19.722 15.04-38.881 22.32-58.56-1.846-2.474-3.872-4.768-6-6.96-6.809 20.07-14.028 39.73-20.88 59.76zm102.72-40.32c.255.01.609-.113.24-.24-1.908-3.451-3.853-6.867-5.52-10.56 2.157-.003 4.272-.048 5.76-.72-2.381-2.019-3.702-5.099-6.24-6.96-.887 2.873-1.958 5.562-3.12 8.16h1.68c2.16 3.68 3.86 7.82 7.2 10.32zm-19.92-9.36c2.766-.354 6.042-.199 8.4-.96-2.465-1.774-3.658-4.822-6.24-6.479-.49 2.59-2.45 4.85-2.16 7.44zm-40.32-1.92c.581 1.979.544 4.576.96 6.72 2.101-2.539 3.917-5.363 7.92-6 .074-1.206-.277-2.837.48-3.36-3.81-1.41-7.111.98-9.36 2.64zm-12.48 2.16c1.734-.186 2.36-1.48 3.12-2.64-1.115-.15-2.199 1.8-3.12 2.64zm2.88-.24c.575-.145 1.095-.345 1.92-.24-.029-.611-.35-.931-.96-.96-.163.56-.798.64-.96 1.2zm68.16.96c1.742 1.693 2.002 4.636 3.6 6.48 2.42 2.793 7.735 4.537 10.08 7.2 1.704 1.935 2.288 5.249 4.08 7.44 2.948 3.605 7.799 5.734 10.32 9.12 2.323 3.12 3.223 7.198 5.52 10.32 2.101 2.855 5.494 4.548 7.68 7.44 2.297 3.039 3.297 6.215 5.76 9.12.414-3.668 3.735-6.574 3.36-9.84-.215-1.878-2.972-3.741-4.32-5.04-1.857-1.789-3.444-3.252-5.04-4.56-1.481-4.119-4.004-7.196-5.52-11.28-1.936-1.204-3.356-2.898-5.04-4.32-1.612-1.361-3.74-2.619-5.28-4.32-2.193-2.421-3.19-6.006-5.52-8.16-1.965-1.816-4.84-2.374-6.72-4.32-1.25-2.03-2.355-4.205-3.6-6.24-3.25.19-6.64.24-9.36.96zm-68.64 1.44c1.276 1.875 6.589.446 8.16-.48v-.72c-2.832.29-5.188 1.05-8.16 1.2zm13.2 7.92c.329 1.783 1.587 3.232 3.12 4.32 2.544-3.696 5.261-7.218 11.04-7.68-1.6-9.16-15.99-6.56-14.16 3.36zm39.36-8.16c2.016 2.51 2.83 6.284 5.04 8.64 2.608 2.781 7.451 4.77 9.84 7.44 2.184 2.44 3.09 5.903 5.04 8.4 3.054 3.91 7.413 5.632 10.56 9.36 2.488 3.323 3.1 7.052 5.52 10.32 2.271 3.066 5.979 4.911 8.16 7.92 3.527 4.869 5.447 10.758 10.32 14.64 1.564-.196 2.971-.549 4.8-.48.107-1.493 1.037-2.163 1.2-3.6-4.15-3.749-5.167-9.232-8.4-13.44-2.396-3.119-6.196-5.1-8.64-8.4-2.135-2.883-3.178-6.017-5.04-9.36-3.04-3.398-7.24-5.143-10.08-8.88-1.827-2.404-2.555-5.67-4.56-7.92-2.692-3.02-7.326-4.579-10.08-7.92-1.941-2.355-2.632-4.884-4.56-7.44-3.44-.16-5.75.81-9.12.72zm-57.84 1.68c.158-.498 1.376-1.163.72-1.68-.252.4-1.208 1.33-.72 1.68zm101.04 61.68c-1.847-2.573-2.529-6.118-4.56-8.88-2.398-3.26-6.633-4.905-8.88-8.16-2.007-2.907-2.899-6.449-4.56-9.6-2.886-3.226-6.906-5.075-10.32-8.88-2.561-2.854-3.652-6.897-6.24-9.84-3.173-3.608-8.363-5.113-10.8-8.4-1.44-1.943-2.744-8.167-5.04-8.88-2.733-.849-6.528 1.708-9.12.96 1.673 4.086 4.321 7.199 6 11.28 3.885 2.355 7.28 5.2 11.04 7.68 2 4.08 4.699 7.461 6.72 11.52 2.968 2.232 5.704 4.696 8.4 7.2 2.214 3.087 3.046 7.042 5.28 10.08s5.896 4.896 8.16 7.92c3.97 5.303 6.201 11.86 11.76 15.6.728-1.752.862-4.098 2.16-5.28 1.014-.266 2.283-.277 3.6-.24-.94-1.8-2.48-2.51-3.6-4.08zm-117.36-11.76c-.794 2.133-2.797 5.758-2.64 7.2.235 2.163 3.52 3.944 4.32 5.76 7.863-18.697 15.798-37.321 23.52-56.16-1.75-2.571-3.864-4.776-6-6.96-5.722 14.82-13.197 34.04-19.2 50.16zm76.8-41.52c-.486-3.383-3.484-6.254-5.76-8.64 1.19 3.61 2.4 7.2 5.76 8.64zm-53.28-7.68c-.475.568 1.276.953 1.2 1.92 1.71-.45 4.187-.133 5.52-.96-.537-.104-.097-1.183-.24-1.68-2.369.03-4.356.44-6.48.72zm-9.84 6.24c.99-1.092 1.848-3.588 1.92-4.8-.987 1.12-1.895 3.5-1.92 4.8zm12.24-2.88c.793.487 1.264 1.296 1.92 1.92.721-.319 1.836-.244 2.88-.24-.106-.934-.182-1.898-.48-2.64-1.505.26-3.242.28-4.32.96zm29.52 4.8c1.151-.529 3.226-.134 4.32-.72-1.226-1.094-1.47-3.17-2.88-4.08-.24 1.68-1.44 3.68-1.44 4.8zm4.8 12.72h-.48c-2.909.331-6.542 1.083-9.12.96-.284-.997-.879-1.681-1.2-2.64 1.688-4.792 3.501-9.458 5.04-14.4-10.788-1.869-17.611 6.343-16.56 16.32 2.851 3.866 5.267 8.38 7.68 12.24.827 1.322 1.821 2.75 3.12 3.6-.17-8.42 5.26-13.29 11.52-16.08zm120.96-16.08c-.051-.29-.267-.147-.48 0-2.396 6.484-4.982 12.777-7.439 19.2 49.674 54.082 99.526 108 149.28 162 4.462-8.019 9.56-15.401 13.92-23.521-51.99-52.33-103.27-105.37-155.28-157.68zm-153.6 1.68c-.107 1.093-.617 1.783-.96 2.64 1.292-.309 2.991-.209 4.32-.48.142-1.021-.173-1.587-.24-2.4-1.194-.07-2.202.04-3.12.24zm54.96 5.52c-1.628-1.252-2.72-3.04-4.8-3.84.96 1.76 3.42 3.3 4.8 3.84zm-21.36-1.68c-.426-2.187-3.806-1.027-6.48-.96-.364 1.635-1.114 2.886-1.44 4.56 2.601.121 4.46-.5 6.96-.48.17-1.42 1.16-2.08.96-3.12zm-35.04 0c-.406.874-.635 1.924-1.2 2.64 2.261-.14 4.404-.396 6.48-.72-.067-.812-.382-1.378-.24-2.4-1.677.16-3.364.32-5.04.48zm35.52 2.88h1.44c-.009-.871-.988-.771-1.2-1.44.17.73-.41.71-.24 1.44zm-37.2 1.2c-.378.662-.67 1.41-.96 2.16 2.725-.314 5.39-.69 8.16-.96v-2.16c-2.393.33-4.964.48-7.2.96zm35.04 4.8c.973-.467 2.37-.51 3.84-.48-.202-1.078-1.131-1.429-1.44-2.4.204-.676.775-.985.72-1.92-2.76-.28-2.76 3.48-3.12 4.8zm5.04-2.88c1.03 1.531 2.417 2.703 3.12 4.56-.364 1.316-1.019 2.341-1.2 3.84.78 1.14 1.433 2.407 2.64 3.12.82-3.101 2.302-5.538 3.12-8.64-2.506-1.494-4.485-3.515-7.2-4.8.29 1.09-.66.94-.48 1.92zm-11.76-1.2c-.552 1.387-1.706 3.118-1.2 4.8 1.721.321 4.03-.742 6.48-.48.414-1.746 1.101-3.219 1.68-4.8-2.6-.12-4.36.6-6.96.48zm147.6 2.64c-1.356 3.751 2.389 4.86 4.08 6.96.173-2.827 1.579-6.846.96-8.88-1.45.87-3.47 1.17-5.04 1.92zm-177.6.24c-.061.819-.607 1.153-.48 2.16 2.896.239 6.691-.655 9.84-.96.188-1.068-.319-1.44-.24-2.4-3.182.26-6.19.69-9.12 1.2zm176.16 1.2c-.117-.757.433-.848.24-1.68-.818.085-1.979-.723-2.4-.24.86.5 1.3 1.42 2.16 1.92zm6.72 6.24c1.717.204 2.846.995 4.801.96.353-1.647.692-3.308 1.199-4.8-1.868-1.171-3.096-2.984-4.8-4.32-.24 2.88-.98 5.26-1.2 8.16zm-35.52-4.8c.398.481.645 1.116 1.44 1.2.387-1.373 1.053-2.467 1.439-3.84-.955.155-.965-.635-1.92-.48-.16 1.2-.7 2.02-.96 3.12zm149.76 165.12c-11.951-12.291-23.448-25.62-34.8-37.92-26.894-29.141-52.585-57.237-79.68-86.4-11.324-12.188-23.085-25.338-34.801-37.68-1.968-2.074-3.891-5.037-5.52-5.28-2.163 1.889 1.479 4.919 3.36 6.96 11.721 12.718 23.598 25.365 34.56 37.68 13.017 14.624 26.953 28.512 39.6 42.72 26.184 29.416 53.025 57.756 78.96 85.68 2.56-2.61-.2-4.24-1.68-5.76zm-288-165.36c-3.024.496-6.198.842-9.36 1.2-.142 1.022.173 1.587.24 2.4 3.393-.287 6.718-.642 9.84-1.2-.561-.48.287-2.37-.72-2.4zm37.92 8.64c.795.965 1.426 2.093 2.4 2.88.785-2.975 2.05-5.47 2.88-8.4-.841-.839-.92-2.44-2.16-2.88-.92 2.92-2.18 5.5-3.12 8.4zm-19.44 8.88c.783-.698 4.016-.184 5.52-.48-1.19-5.939 4.321-9.257 9.36-10.56-.569-.711-1.371-1.189-1.68-2.16.804-.796.843-2.357 1.44-3.36-9.16.98-15.74 6.9-14.64 16.56zm161.76-12c.567-.713 2.022-.538 2.4-1.44-.787-.414-1.134-1.266-1.921-1.68-.09.96-.91 2.44-.48 3.12zm-179.76-1.92c-2.823.697-6.218.823-9.36 1.2-.142 1.022.173 1.587.24 2.4 3.418-.181 6.664-.536 9.6-1.2-.23-.73.514-2.43-.48-2.4zm-63.12.96c.617 3.143 2.163 5.357 2.64 8.64 8.836 10.444 17.438 21.122 25.92 31.92 2.298.1 5.716 1.853 6-1.2-.907-.543-.673 1.798-2.16 1.44-2.712-2.728-5.094-5.786-7.2-9.12.322-.878.675-1.725.96-2.64-.672-.522-1.171.996-2.16.24-2.28-2.92-4.666-5.734-6.72-8.88.776-1.383.614-1.954-.48-2.88-.149.73-.533 1.227-1.44 1.2-2.809-2.631-4.972-5.908-7.2-9.12.69-1.302.873-2.716-.48-3.36-.327.553-.421 1.339-1.44 1.2-2.377-2.183-3.512-5.608-5.52-8.16-.135.35-.375.58-.72.72zm68.16 13.2c.155 1.564-.232 4.672.96 5.28 1.886-2.594 2.439-6.521 3.84-9.6-2.192-3.008-4.027-6.374-6.24-9.36.388 4.08 1.001 9.26 1.44 13.68zm55.44-12.72v-.96c-.349.131-1.241-.28-1.2.24.82-.18.3.98 1.2.72zm-17.76 5.04c.931-.589 3.186.146 4.08-.48-1.134-.945-1.256-2.903-2.64-3.6-.27 1.57-.94 2.74-1.44 4.08zm64.56-3.84c-1.051 2.869-1.844 5.996-3.12 8.64.741 1.339 1.781 2.379 3.12 3.12 1.316-3.964 2.772-7.788 4.08-11.76zm-116.4 2.16c-.188.988.368 1.231.24 2.16 3.485-.195 6.571-.789 9.84-1.2.105-.825-.095-1.345-.24-1.92-3.435.16-6.236.96-9.84.96zm33.36 7.92c.374 2.68 3.617 3.877 4.32 6.72 2.997.118 5.07-.689 8.16-.48-1.518-2.949 3.057-6.887 1.44-9.12-.041.359.086.886-.24.96-2.344-1.414-3.405-3.697-3.84-6.48-5.13.12-10.48 3.82-9.84 8.4zm46.32 113.76c5.944-.296 11.822-.658 17.52-1.2 14.213-38.029 28.606-75.873 42.96-113.76-3.701.139-7.29.391-10.8.72-1.087-2.353-2.718-4.162-4.08-6.24-15.17 40.19-30.36 80.35-45.6 120.48zm-90.72-104.88c2.571-.069 4.61-.67 7.44-.48-.496-4.864-.832-9.888-1.44-14.64-1.679 5.36-4.29 9.79-6 15.12zm151.2 3.6c47.271 54.969 94.671 109.81 142.08 164.64 4.414-7.346 9.07-14.449 13.199-22.08-48.593-53.575-98.529-107.86-148.08-161.28-2.25 6.39-4.83 12.45-7.2 18.72zm-139.68-17.04v2.64c3.295-.465 6.489-1.031 10.08-1.2-.067-.812-.382-1.378-.24-2.4-3.578.02-6.281.92-9.84.96zm50.88-.48c-.409 1.751-1.113 3.207-1.68 4.8 2.702.142 4.629-.49 7.2-.48.298-1.302 1.127-2.073 1.2-3.6-1.08-2.08-3.91-.31-6.72-.72zm6.96 4.08c1.125-.155 2.874.314 3.6-.24-1.195-.405-1.549-1.65-2.88-1.92-.08.88-.59 1.33-.72 2.16zm-57.6.24c-.08.96.428 1.333.24 2.4 3.227-.453 6.517-.843 9.84-1.2v-2.4c-3.464.3-6.781.74-10.08 1.2zm19.44 4.8c2.297-.183 5.078.118 6.48-.96-.411-.789-2.021-.379-3.12-.48-.69-.83-.956-2.084-1.92-2.64-.38 1.46-1.08 2.6-1.44 4.08zm37.44-3.6c-.341 1.499-.932 2.748-1.44 4.08 1.854-.386 3.999-.48 6-.72.37-1.23 1.034-2.166 1.44-3.36-1.36-1.02-3.84.29-6 0zm-8.4.48c-.209 1.657-1.581 3.073-1.2 4.56 2.374-.266 4.786-.494 6.96-.96.252-1.588 1.002-2.678 1.44-4.08-2.45.11-4.5.62-7.2.48zm-48.24 1.92c.067.812.382 1.378.24 2.4 3.619-.141 6.724-.796 10.08-1.2-.08-.96.309-2.389-.72-2.4-3.027.57-6.369.83-9.6 1.2zm29.52.48c.349-.131 1.24.281 1.2-.24-1.234.274-3.721-.491-3.84.24.49.55 2.07.17 2.64 0zm74.16 5.04c2.05 3.551 3.816 7.384 6.24 10.56.101-.459.087-1.033.72-.96-2.923-5.717-6.037-11.244-11.52-14.4.46 1.72 2.95 3.43 4.56 4.8zm-77.52-3.6c-.169 1.111-.791 1.77-.96 2.88 2.919-.601 7.808.768 7.68-2.88-1.56-1.02-4.26.38-6.72 0zm-7.44.48c-.143 1.138-.669 1.892-.96 2.88 2.151-.009 3.917-.404 6.24-.24.125-1.235.794-1.925.96-3.12-1.97.27-3.92.56-6.24.48zm-18.24 1.2c-.118 1.078.122 1.798.24 2.64 3.607-.072 6.582-.778 10.08-.96-.151-1.049.128-2.528-.72-2.88-3.022.58-6.192 1.01-9.6 1.2zm85.44 1.68c-.955-.805-1.972-1.548-2.4-2.88h-2.16c.77 1.55 2.53 3.39 4.56 2.88zm-131.52 13.92c-4.335-5.425-8.335-11.185-12.96-16.32-.68.36-1.812.269-2.4.72 1.804 3.829 4.921 6.824 7.44 10.08 7.758 10.029 15.386 19.791 23.04 29.76 3.466-2.047-.19-5.276-1.68-7.2-3.21-4.145-7.325-8.968-9.84-12.48-2.83.96-4.49-1.85-3.6-4.56zm105.6-14.16c.216.824.529 1.551.96 2.16 2.446-.782 5.914.381 7.68.24-.965-1.275-1.586-2.894-2.4-4.32-3.22-.5-4.55.89-6.24 1.92zm-10.56 0c1.052 2.513 1.408 6.607.72 8.88 2.056-2.983 5.008-5.071 8.88-6.24-.68-4-5.9-4.13-9.6-2.64zm-4.56.48c-.255-.033-.38.218-.72.24-17.606 1.151-40.583 3.051-59.04 4.32-1.074 3.326-2.589 6.21-3.84 9.36 21.773-2.227 44.238-3.761 66.24-5.76 1.4-3.29.82-7.71-2.64-8.16zm44.4 4.32c-.934-.59-1.861-2.453-2.88-2.16 1.24.29 2.02 2.29 2.88 2.16zm-168 41.04c-.918 1.947-2.589 4.76-2.64 6-.103 2.471 2.249 4.915 2.4 7.2 7.417-17.144 14.979-34.141 22.56-51.12-1.237-1.003-1.813-2.667-3.12-3.6-5.676 12.17-13.041 28.46-19.2 41.52zm149.04-40.08c-2.805-2.055-8.455-2.045-12-.72-6.024 2.251-11.665 10.99-8.64 17.52 2.198 2.921 4.56 5.68 6.48 8.88 5.397.229 5.841 2.85 8.4 6 2.407 2.963 3.403 5.493 8.16 5.04.204-6.629 4.326-10.51 10.8-10.08.018-4.417-1.81-6.99-3.84-9.36-2.744-1.017-8.627 1.107-9.84-1.44 1.039-1.521 3.351-1.77 4.32-3.36-.55-1.64-2.318-3.243-2.16-4.8.599-.601 1.672-.728 2.88-.72-1.87-2.24-2.43-5.4-4.56-6.96zm-98.64 1.68c.669.167 1.015-1.194.48-1.44-.175.53-1.127.8-.48 1.44zm-15.36 9.6c2.881-.842 6.647-9.093 3.12-10.8-1.259 3.23-3.896 6.33-3.12 10.8zm137.04-6.24c-.665-.913-1.32-2.957-1.92-2.4 2.467 4.093 4.903 9.497 8.88 11.28-2.08-2.74-4.95-6.12-6.96-8.88zm-131.28 1.68c1.563 1.09 1.833 3.882 4.8 2.88-1.328-2.032-2.71-4.009-4.56-5.52.177 1.14-.27 1.65-.24 2.64zm183.6 10.32c.864-.896 2.116-3.228 1.92-4.56-.151-1.029-2.146-2.702-3.12-3.84-.88-1.028-2.277-3.136-3.6-3.6-1.807-.634-4.465-.221-6.48 0-1.083 1.796-1.837 3.923-2.4 6.24 2.852.37 5.26-.978 7.68-.24-1.013 3.147-2.517 5.803-3.36 9.12 3.62-.02 7.38-1.07 9.36-3.12zm-110.64-10.8c.69 1.39 1.937 2.223 2.88 3.36.499-1.101.781-2.418 1.2-3.6-1.53-.09-2.45.43-4.08.24zm-11.04.96c.198.678-.338.622-.24 1.2 2.079 1.474 4.155 4.941 6.48 6.96.918-3.082 2.093-5.907 3.12-8.88-3.32.04-6.05.67-9.36.72zm17.28-.48c-.188 1.812-1.06 2.94-1.44 4.56 2.001-.319 4.137-.503 6.48-.48.341-1.58.945-2.896 1.44-4.32-2.43-.19-4.16.32-6.48.24zm-113.76 49.44c-.943 2.288-2.964 5.327-2.88 6.96.116 2.261 2.552 4.266 3.12 6.24 7.485-19.394 15.897-37.863 23.28-57.36-1.065-1.734-2.432-3.168-3.6-4.8-6.151 14.58-13.41 33.16-19.92 48.96zm103.44-40.08c.92 1.561 2.097 2.863 3.36 4.08 1.168-4.406 5.041-10.079-.24-12.48-.95 2.89-1.92 5.76-3.12 8.4zm-48.96-4.56c.656 1.024.852 2.508.72 4.32-2.497 2.789-6.51 3.928-10.56 1.68-1.845-1.024-2.658-4.245-4.56-4.8-1.072-.313-2.034.346-2.88.24-1.743-.218-2.293-1.615-3.84-1.68 2.223 2.606 4.229 5.445 6.72 8.64 2.506 3.213 7.046 6.81 6.48 12.48-1.386 1.334-2.981 2.459-4.32 3.84-1.404 5.236-2.985 10.295-4.32 15.6.784.336 1.545.694 2.16 1.2 27.612 36.866 55.333 73.629 83.28 110.16 3.441-9.759 7.194-19.206 10.8-28.8-2.335.198-5.535.804-7.44 0-1.474-2.263-2.597-5.573-1.68-8.88-4.56-4.801-8.834-9.886-12-16.08-2.565-2.429-5.215-3.781-7.44-6.72-2.101-2.775-2.866-6.807-5.28-9.6-1.982-2.294-5.868-3.669-8.16-6.48-2.389-2.929-4.057-8.041-6.48-10.56-1.245-1.294-3.599-2.441-5.28-3.6-1.796-1.238-4.094-2.185-5.28-3.6-1.388-1.657-2.445-4.344-3.84-6.72-.638-1.086-3.877-5.134-3.6-6.96.357-2.35 3.188-1.891 6-2.16 4.039-.386 8.164-1.603 10.32-.24 2.854-2.346 8.999-1.401 13.68-1.92 1.077-.197 1.072.688 1.68.96 2.715-2.885 9.526-1.674 14.4-2.4 2.021 1.819 3.181 4.499 4.56 6.96 1.893 1.354 4.494 2.07 6.24 3.6 2.288 2.004 3.416 5.513 5.76 7.92 2.811 2.886 6.854 4.912 9.36 7.68 4.172 4.606 4.889 12.241 11.04 15.12 2.217-6.343 4.786-12.334 6.96-18.72-3.461.385-7.52 1.324-7.92-1.68-.19-1.433 1.244-4.945 1.92-7.2.782-2.611 1.975-5.045 1.92-7.2-.898-.143-1.241-.839-1.92-1.2-3.184 9.646-15.435 1.801-12.96-7.44-3.66-.22-6.18.7-9.84.48-.166-.358-1.275-.747-1.68-1.68-.504-1.161-1.74-8.545-1.44-9.36.548-1.491 1.964-.689 2.64-1.92.13-1.49-.486-2.233-.48-3.6.619-.98 1.523-1.677 2.88-1.92-3.891-.029-5.446-2.394-6.96-4.8-2.54 1.46-6.683 1.316-10.08 1.92-1.362 3.937-2.88 8.15-4.32 12.24-1.421 4.039-2.35 8.557-5.28 11.28-3.943-2.572-6.759-6.717-10.08-10.8-1.317-1.62-2.957-3.338-4.8-5.52-1.183-1.4-4.213-4.675-4.32-6.24-.073-1.074 1.071-3.211 1.68-4.8 1.794-4.681 4.415-10.94 5.28-14.4-12.149 1.45-25.005 2.2-37.44 3.36zm92.16-2.88c.692 1.308 1.453 2.547 2.16 3.84h4.8c-.312-1.848-1.768-2.553-2.16-4.32-1.93-.17-2.97.55-4.8.48zm-54.72 10.8c2.399 2.24 3.965 5.315 6.72 7.2.828-3.652 2.501-6.458 3.36-10.08-2.09-2.39-4.175-4.784-6.24-7.2-1.29 3.35-2.54 6.74-3.84 10.08zm19.92-6.96c-.361 1.798-1.112 3.208-1.68 4.8 2.343.023 4.479-.161 6.48-.48.545-1.615 1.021-3.299 1.68-4.8-2.38-.06-4.3.34-6.48.48zm6 4.32h1.68c.105-1.465-.294-2.426-.72-3.36.08 1.52-.99 1.89-.96 3.36zm85.44-2.88c-1.668 4.492-3.436 8.884-5.04 13.44 1.414-.506 3.889.048 5.28-.48.862-2.107 1.758-4.593 2.64-6.96.855-2.296 2.285-4.722 2.16-6.48-1.4.44-3.64.04-5.04.48zm-56.64 1.2c2.873-.101 6.59 1.227 8.64-.24-.322-.158-.447-.513-.48-.96-2.54-.36-7.21-.82-8.16 1.2zm20.4 1.92c-1.532 4.407-4.208 8.186-1.68 12.96 3.48-.2 6.766-.594 10.32-.72.607-2.151 1.565-4.486 2.4-6.72.84-2.249 2.246-4.573 1.92-6.48-4.35.29-8.13 1.15-12.96.96zm-158.4 52.56c-.811 2.352-2.8 6.233-2.64 7.68.25 2.254 3.594 3.799 4.8 5.52 6.695-20.345 13.595-40.484 20.64-60.48-1.143-2.217-2.787-3.934-4.32-5.76-5.409 15.85-12.601 35.99-18.48 53.04zm146.4-52.56c.233.967.931 1.469 1.44 2.16-.074-.955.554-1.206.48-2.16-.59-.59-1.04.18-1.92 0zm-55.68 10.8c2.358 3.002 4.898 5.822 7.44 8.64.965-3.595 2.698-6.423 3.36-10.32-1.081.118-2.332.526-3.12.24-1.869-.997-1.646-2.966-.96-5.04-1.024-1.216-2.11-2.37-3.12-3.6-1.2 3.36-2.62 6.5-3.6 10.08zm18-9.84c-.63 1.61-1.279 3.201-1.68 5.04 1.844-.236 3.769-.391 5.52-.72-.025-.985.959-.961.72-2.16-1.17-1.38-1.71-3.02-4.56-2.16zm-7.68.72c-.475 1.846-1.303 3.337-1.68 5.28 2.595.035 4.474-.646 6.72-.96-.223-1.426 1.016-3.461 1.44-5.04-2.19.21-4.33.47-6.48.72zm106.8 1.2c-.053-.187-.201-.279-.48-.24-1.808 1.392-4.656 1.744-7.919 1.68-.974 2.706-1.977 5.383-3.12 7.92-2.492.388-5.619.141-7.92.72-2.483 7.598-5.54 14.621-8.16 22.08.933.667 1.896 1.305 3.36 1.44 2.488-3.272 6.489-5.031 12.48-4.8 3.84-9.68 7.85-19.19 11.76-28.8zm6 6.48c1.445 1.435 2.276 3.483 3.12 5.52 2.608-.992 4.464-2.736 5.52-5.28-2.091-2.309-3.913-4.886-6.24-6.96-.88 2.16-1.76 4.32-2.4 6.72zm-3.36-6.24c-3.731 8.668-7.484 17.316-10.8 26.4 1.308.108 1.972-.428 3.36-.24 1.043-2.637 2.154-5.206 3.359-7.68 2.246-.198 4.109-.364 6 .24 2.781-3.12 1.161-9.579-2.16-10.8.416-3.024 1.965-4.916 2.4-7.92h-2.16zm-130.08 7.2c.345 2.66 5.49 6.053 6.48 7.92.483-2.717 1.719-4.682 2.4-7.2-2.376-2.264-3.995-5.285-6.72-7.2-.08 2.78-2.46 4.2-2.16 6.48zm71.76-.96c-.979-.718-.295-2.701 0-3.6-.459-.661-1.019-1.221-1.68-1.68-.5 1.79-.03 5.72 1.68 5.28zm-143.52 63.6c.56.911 1.884 1.494 2.88 2.4.809.736 1.687 2.508 2.4 1.92 4.906-16.1 9.638-35.455 14.64-52.56.678-2.32 2.401-5.938 2.16-7.68-.309-2.223-3.292-3.878-4.32-5.76-5.614 20.87-12.077 40.88-17.76 61.68zm139.92-60.96c-11.388-3.382-13.118 16.489-.96 14.4-.941-3.023 1.887-5.996 5.76-5.76.39-4.88-1.77-7.74-4.8-8.64zm71.04 5.52c.331 1.294.994 2.624 2.4 2.16.528-.507-.309-.709-.24-1.44 1.674-1.846 3.354-3.686 4.8-5.76-3.03-.84-3.15 5.09-6.96 5.04zm-132 1.68c.186 1.463 2.551 3.269 3.6 4.56 1.453 1.788 2.485 3.501 3.84 4.56.69-2.75 1.803-5.077 2.64-7.68-2.798-2.562-4.791-5.929-7.68-8.4-.22 2.82-2.7 4.6-2.4 6.96zm78.24-4.32c-.053-.187-.201-.279-.48-.24-3.319.281-6.438.762-10.08.72.518 1.88.866 5.4 0 7.2 1.417 1.864 3.485 3.075 6.24 3.6 1.58-3.62 3-7.4 4.32-11.28zm-42.72 1.2c.03 1.81.551 3.129.72 4.8 2.328-.246 4.692.744 6.72 0-2.39-1.88-2.59-6.03-7.44-4.8zm104.4-.24c-.553 1.168-2.469 1.842-1.68 3.6 1.914.154 3.118-.402 4.32-.96-1.06-.7-1.27-2.25-2.64-2.64zm-5.28 5.04c-.25 5.43-.536 10.824-.72 16.32.308.947-.699.581-.72 1.2.966-.166.589 1.01 1.439.96-.795-5.115 1.376-13.754.24-19.2-.04.28.04.68-.24.72zm9.12 6.48c.384.896 1.493 1.067 1.681 2.16-.307.734-.973 1.107-.96 2.16 1.015 1.865 2.688 3.073 5.52 3.12 2.109 1.633 4.479 7.106 7.2 7.92 2.304.689 5.055.122 7.92.24-6.444-7.076-12.375-14.665-18.96-21.6-.49 2.31-1.82 3.78-2.4 6zm-109.44.48c3.333-.187 6.557-.483 9.84-.72.034-1.954-.756-3.084-.96-4.8-3.265-.255-6.659-.381-10.08-.48.22 2.18.96 3.84 1.2 6zm27.12-2.88c1.554 2.926 3.474 5.486 5.76 7.68 1.368-1.992 3.055-3.666 5.04-5.04-3.075-.765-5.156-2.524-6.48-5.04-2.44-.2-3.64.84-4.32 2.4zm76.08.96c.902-.698 1.765-1.435 3.119-1.68v-1.2c-2.18-.3-3.37 1.54-3.12 2.88zm-18.72 3.12c.886.395 1.963.598 2.88.96.783-1.697 1.317-3.643 2.16-5.28-.938-.261-1.76-.64-3.12-.48-.62 1.62-1.47 3.01-1.92 4.8zm9.6-4.8c-2.925 4.463-.61 11.203 3.6 12.72.32-4.159.522-8.437.72-12.72-1.19.47-2.62-.25-4.32 0zm8.4 3.36c-.209 4.307-.681 9.131-.239 12.72 4.377 2.328 11.681 4.976 17.76 2.64-1.492-2.428-3.598-4.243-5.28-6.48-3.456-.384-5.589-2.091-6.479-5.04.21-.67.574-1.186.72-1.92-1.196-1.043-2.258-2.223-3.601-3.12-.05 1.33-1.94 1.48-2.88 1.2zm-86.64 11.76c4.726-.466 2.501-12.335-1.68-11.76-5.23.72-2.52 12.17 1.68 11.76zm11.76-7.68c-.138-.982-1.105-1.135-1.2-2.16-.497.143-1.577-.296-1.68.24 1.03.57 1.38 1.82 2.88 1.92zm269.76-.96c-5.447 7.992-10.361 16.518-15.84 24.48.117 1.163 1.398 1.161 1.68 2.16-1.45 1.589-2.665 3.414-4.079 5.04-.651-.149-.598-1.003-1.44-.96-3.772 5.819-7.635 12.228-11.28 18-1.161 1.839-3.484 3.766-2.64 6.24 2.965-.06 4.379-4.135 6-6.72 9.897-15.786 20.509-31.876 29.76-47.04-.84-.28-1.03-1.21-2.16-1.2zm-270.24 7.92c-.889 4.872-2.523 8.997-3.6 13.68 1.744-.496 4.354-.126 6.48-.24-.117-.851.968-1.733.48-2.16-.952.249-2.733.676-3.6.24.721-4.159 2.53-7.229 3.36-11.28 1.853.092 2.995-.525 4.8-.48.466-.894.745-1.975 1.2-2.88-3.589-.149-6.463.417-10.08.24-2.27-1.17-2.9-3.98-6.24-4.08 1.3 3.42 5.25 4.19 7.2 6.96zm64.32-4.32c-.126-.833-.649-1.27-.96-1.92-.69.86.42 1.53.96 1.92zm-.72 25.44c7.66-5.437 3.274-26.041-6.96-26.64-3.067-.18-5.28.971-9.36.96 3.417 3.886 9.877 14.342 6.72 23.28-.438 1.236-2.508 3.215-2.16 4.08 4.28-.99 8.85.39 11.76-1.68zm-19.44-24.72c-5.449-2.501-9.369 4.131-9.36 8.88.016 8.257 4.605 17.523 12 18 9.8-3.93 3.78-23.93-2.64-26.88zm-59.04 36.48c-2.092-2.988-2.993-6.985-5.28-9.84-2.56-3.195-7.419-5.192-10.32-8.64-1.824-2.167-2.82-5.077-4.56-6.72-2.001-1.89-5.222-2.394-6.96-4.32-1.482-1.643-1.968-4.976-3.84-5.52-2.264-.658-5.988 1.041-7.92.72 1.979 6.581 7.956 9.164 12.96 12.72 2.522 7.158 8.614 10.747 13.92 15.12 2.058 3.212 2.822 6.851 5.04 9.6 3.117 3.863 8.402 5.842 10.08 11.04 2.406-.411 3.377-4.291 4.56-6.72-2.18-2.98-5.4-4.18-7.68-7.44zm-54.72-33.12c2.97 6.79 8.634 10.886 14.4 14.88 1.757 2.382 2.707 5.117 4.8 7.68 2.863 3.506 7.66 5.61 10.32 9.12 1.95 2.573 3.237 6.879 5.04 9.12 1.676 2.083 5.814 4.584 7.68 6.96 1.695 2.159 2.92 4.636 4.56 7.2 1.873 2.929 4.431 7.389 7.92 6 .602-1.799.505-4.295.48-6.721-2.49-2.584-2.989-5.977-5.04-8.64-2.396-3.11-6.517-4.907-8.88-8.16-1.928-2.655-2.643-5.492-4.56-8.4-2.946-2.855-6.447-4.647-9.12-7.92-1.821-2.229-2.818-5.219-4.8-7.44-2.675-2.998-7.154-4.389-9.84-7.44-1.709-1.941-2.366-4.805-4.08-6.72-3.34-.22-5.6.64-8.88.48zm132 24.48c-4.193 1.132-9.219.384-14.4 1.44-.858 2.39-2.274 4.47-3.36 6.72-1.042 2.16-2.769 4.907-2.88 7.2-.088 1.818.909 4.516 1.92 6.24 4.283 7.304 17.363 11.809 25.92 6.96 7.477-15.244 15.097-30.344 22.561-45.6-11.191 2.186-19.151-3.959-25.2-7.68 4.5 7.23 4.48 22.28-4.56 24.72zm-42.24 1.44c2.964 4.266 5.852 8.767 8.64 12.96.83 1.248 2.009 3.569 4.08 3.12 2.042-4.999 4.54-9.54 10.08-11.04.774-1.705 1.708-3.252 2.4-5.04-8.334-1.648-12.296-9.965-12.96-18.72-.284-3.744.135-6.023-2.64-7.2-3.02 8.82-6.52 17.16-9.6 25.92zm-48.48 32.4c-1.852-2.49-2.651-5.838-4.56-8.16-2.521-3.066-5.987-4.294-8.4-7.44-1.692-2.814-2.349-6.283-4.32-8.88-2.333-3.074-6.939-4.715-9.6-7.68-2.364-2.634-3.67-6.853-6.24-9.6-3.03-3.24-8.331-5.037-10.56-8.16-1.74-2.438-2.177-5.69-4.56-7.68-2.565.635-6.041.359-8.64.96.796 1.864 1.881 3.322 2.88 5.04.958 1.646 1.625 3.926 2.88 5.28 2.845 3.07 8.017 4.013 10.8 7.44 2.676 3.295 3.33 6.438 6 10.08 2.977 1.823 5.164 4.436 8.16 6.24 1.267 3.693 3.688 6.232 5.04 9.84 8.509 4.852 11.717 16.282 19.2 21.36.64-1.521 1.142-3.178 1.68-4.8 1.141-.14 2.213-.348 3.6-.24-.78-1.47-2.39-2.29-3.36-3.6zm32.4-56.64c-.887 3.032-2.001 5.839-2.88 8.88 1.135.095 2.003-.077 2.88-.24 1.028-3.132 2.425-5.896 3.36-9.12-.97.31-2.43.13-3.36.48zm-126.24 13.2c.219 1.384 3.442 5.024 5.04 7.2 25.936 35.312 51.922 72.718 77.28 107.04 1.414-3.707 2.695-7.546 4.08-11.28-.205-1.479.036-3.082.96-4.561-28.2-36.92-55.999-74.24-84.24-111.12.033 2.74-3.515 10.22-3.12 12.72zm-1.92 1.68c26.66 37.26 54.475 75.251 80.88 112.56.652.922 2.055 3.463 2.4 2.88.167-1.485-1.177-2.593-1.92-3.601-27.431-37.193-53.721-75.438-80.88-112.56-.014-.146-.036-.284-.24-.24-.076.32-.342.46-.24.96zm-2.4 14.16c26.462 39.058 52.444 78.595 79.2 117.36 1.751-4.649 4.146-8.654 5.52-13.681-27.268-38.09-54.378-76.342-81.84-114.24-1.164 3.32-1.788 7.17-2.88 10.56zm141.6 10.8c3.247-.753 7.981-.019 10.8-1.2-2.309-3.131-4.428-6.452-6.72-9.6-1.47 3.49-2.77 7.15-4.08 10.8zm-146.16-5.04c1.226-.464 2.008-.122 2.64.24 1.226.702 3.684 5.156 5.04 7.2 24.4 36.793 48.738 74.866 72.96 110.64.112-1.248.709-2.011.96-3.12-26.805-39.756-53.464-79.655-80.4-119.28-.467 1.37-.717 2.96-1.2 4.32zm165.84 5.28c2.151-.731 3.482.841 4.8 1.68-1.896-4.791 1.698-7.77 2.4-11.04-3.26 2.26-6.7 4.34-7.2 9.36zm-166.8 12c24.99 40.212 49.873 80.525 75.12 120.48.392-2.037 1.823-4.186 2.88-6.72.837-2.006 2.82-5.409 2.64-7.2-.146-1.461-3.443-5.174-4.8-7.199-24.698-36.883-48.376-75.155-72.96-111.12-.753 4.13-1.912 7.85-2.88 11.76zm231.84 8.16c.999-8.141-2.248-17.945-7.2-19.2-1.405-.356-2.94.176-4.32.24-3.406.158-7.002-.117-11.04 0-.456 2.087-2.657 3.757-2.88 6.48-.119 1.466.618 3.243.721 5.04.265 4.657.104 9.029-1.2 12 1.046 1.754 2.018 3.583 3.6 4.8 5.635-.045 10.991-.368 16.561-.479 2.55-2.05 5.21-4.44 5.76-8.88zm-76.8 10.8c6.316-.519 17.001.242 19.2-4.08 3.539-6.954.043-23.91-6.96-24.72-2.513-.291-6.222.537-9.12.72-9.647.61-18.214 1.383-27.36 2.4 5.084 3.41 8.9 16.211 5.76 23.76-.643 1.546-2.123 2.807-1.92 3.84 6.49-.59 12.72-1.29 20.4-1.92zm-31.92-19.44c5.098-1.124 8.343 9.196 6.48 13.921-2.054 5.211-8.396-.296-8.64-4.32 1.62 6.141 3.86 11.659 10.8 12.479 8.021-6.281 4.692-25.932-4.08-28.8-5.573.428-8.107 5.172-7.2 11.28.54-2.15.8-4.16 2.64-4.56zm52.32 18c2.736 1.412 7.71 2.369 11.52 1.2-6.289-5.643 6.628-16.348 13.2-10.56.439-1.717 1.224-3.836.72-5.76-8.042 3.106-19.507.149-24.24-5.041 1.95 5.86 2.22 15.81-1.2 20.16zm27.6-16.56c1.165 2.538.273 6.71-.96 8.4.683 1.236 1.818 2.021 3.119 2.64.738-4.13 1.31-10.641 0-14.64-.48 1.44-1.14 2.7-2.16 3.6zm-204.96.24c25.4 40.6 50.437 81.562 75.84 122.16.161-1.469-.977-2.717-1.68-3.841-24.805-39.677-49.49-79.679-74.16-119.28v.96zm125.28-.48c-1.55.402-1.832 3.468-1.68 5.28.313 3.741 1.864 8.273 5.76 8.16 3.12-3.6.19-14.55-4.08-13.44zm220.56 33.84c-.632-.117-.809-1.323-1.44-.72-3.218 5.974-7.163 11.884-10.56 17.521-1.105 1.834-3.137 4.076-2.16 6.479 2.531-1.027 3.512-3.909 4.8-6 9.653-15.66 19.058-31.545 28.32-47.28-.629-.331-.826-1.094-1.681-1.199-4.963 7.997-9.922 15.997-14.64 24.239 2.61 2.47-1.24 4.97-2.64 6.96zm-348-18c.171 1.597 2.951 5.347 4.32 7.681 22.262 37.961 45.316 77.402 67.2 114.24 1.71-4.529 3.747-8.732 5.52-13.199-24.928-39.874-49.485-80.114-74.4-120 .038 2.9-2.881 9.03-2.64 11.28zm191.76-1.92c.125 3.833 7.306 3.904 9.84 5.521 2.169 1.383 2.991 4.352 4.8 4.8 3.065.76 5.693-2.626 5.521-4.56-.041-.46-.881-1.685-1.92-3.12-1.938-2.679-3.489-3.783-6-5.761-2.13-1.676-3.058-3.002-6-2.399-1.98.4-6.33 2.87-6.24 5.52zm-82.56-4.08c-.865 3.745-3.523 7.69-1.68 12 2.42-.299 4.845-.595 7.68-.479 1.658-3.862 3.729-8.591 4.56-12.48-3.28.56-6.9.78-10.56.96zm-6.48 51.6c2.576 1.309 3.524 5.165 6.48 5.52 2.643.317 6.093-2.277 8.88-1.92 5.636-13.804 10.793-28.086 16.08-42.24-7.718-.761-9.605-7.354-11.76-13.68-6.51 17.49-13.22 34.78-19.68 52.32zm74.88-42.72c-1.134.308-4.017.94-6.24.96 1.449 4.299 8.247 9.111 14.64 9.84 6.93.789 12.936-1.965 9.359-7.681-5.02-1.97-13.54.06-17.76-3.12zm-11.04 1.44c-1.36 1.9-3.085 5.132-4.56 8.16-2.469 5.068-5.57 9.964-2.4 15.6 2.812 5 12.774 10.553 20.16 9.36 4.945-.799 6.959-8.659 8.88-12.48 1.821-3.621 4.341-6.989 5.28-11.04-10.557 3.299-20.594-2.963-24-9.84-1.17.03-2.53-.13-3.36.24zm3.6 42c-1.478.683-3.235 1.085-4.8 1.68-.617 2.824-1.558 5.322-2.16 8.16 1.54-.46 2.974-1.025 4.56-1.439.43-2.87 2.98-6.12 2.4-8.4zm-13.92 9.36c2.061.099 3.497.823 5.52.96.896-2.864 1.895-5.625 2.4-8.88-1.944-.296-3.921-.559-5.76-.96-.41 3.12-2.07 6.23-2.16 8.88zm-4.8-6.72c-.399 3.121-1.46 5.58-2.16 8.4 2.011-.47 3.462-1.498 5.52-1.92.689-2.671 1.483-5.237 2.16-7.92-2.05.27-3.41 1.22-5.52 1.44zm-9.12 7.92c1.805.436 3.798.683 5.52 1.2.707-3.054 1.754-5.766 2.4-8.88-1.826-.333-3.676-.644-5.52-.96-.8 2.88-1.64 5.72-2.4 8.64zm-60.48 49.68c-.941 2.535-3.093 6.719-2.88 8.399.138 1.093 1.685 2.226 2.16 3.36.731 1.747.559 3.115 1.2 4.56.631-.248 1.473-.287 2.4-.239-.516-4.867 4.813-4.425 5.52-.96 4.114-11.242 10.22-26.486 14.64-38.641.613-1.686 2.065-4.496 1.92-5.76-.116-1.004-1.811-1.85-1.92-3.36-.219-3.016 2.932-3.943 4.56-2.88 2.283-6.517 4.712-12.888 7.2-19.2-2.866.574-5.684 1.196-8.4 1.921-1.955-1.726-3.831-3.529-5.76-5.28-6.49 17.48-13.69 39.37-20.64 58.08zm55.92-56.64c-.222 3.14-2.12 5.879-1.92 8.641 1.669-.73 3.062-1.738 5.28-1.92.31-2.587 2.261-6.037 1.68-7.92-1.76.32-3.31.85-5.04 1.2zm-6-.96c-.922 2.838-1.852 5.668-2.4 8.88 1.669.251 2.93.91 4.8.961.778-2.982 1.628-5.893 2.4-8.881-1.69-.23-2.97-.87-4.8-.96zm-6.72 1.92c-.838 2.763-1.56 5.641-2.4 8.4 2.042-.278 3.583-1.058 5.52-1.44.51-2.931 1.874-6.284 2.16-8.64-1.51.81-3.48 1.16-5.28 1.68zm-6.24.48c-.546 2.414-1.551 4.368-2.4 6.479.867.413 1.726.835 2.88.961.187-.534.139-1.302.72-1.44.516.604.901 1.339 1.44 1.92.618-3.142 1.68-5.84 2.4-8.88-1.058-.302-2.091-.629-3.12-.96-.49.79-.46 2.09-1.92 1.92zm-5.28 26.16c34.328 48.232 68.629 96.49 103.2 144.48 3.783-6.297 7.97-12.19 11.76-18.479-36.147-47.129-71.869-94.694-108.24-141.6-2.12 5.32-4.64 10.24-6.72 15.6zm-6.48-4.32c-.492 1.998 4.227 7.362 6 9.84 7.053 9.857 14.128 19.588 20.64 28.8 26.201 37.07 52.649 73.359 78.72 110.4.7.994 2.539 4.913 3.601 3.84 1.045-1.057-1.482-4.09-2.16-5.04-35.475-49.712-71.164-99.33-106.32-148.56-.014-.146-.036-.284-.24-.24-.04.43-.14.56-.24.96zm-2.64 24.96c32.596 48.77 65.04 97.679 97.68 146.4 3.784-5.736 7.343-11.697 11.279-17.28-33.943-48.291-68.2-96.282-102.48-144.24-2.02 5.18-4.56 9.84-6.48 15.12zm45.6-1.2c.868.332.883 1.518 1.68 1.92.169-1.11.791-1.769.96-2.88-.97.23-2.2.2-2.64.96zm-51.36 8.4c1.383.697 1.156 3.004 2.88 3.36.844-2.356 1.459-4.941 2.16-7.44-.953-.727-1.078-2.282-2.4-2.64-.81 2.31-1.6 4.64-2.64 6.72zm4.32 4.08c1.54-.7 3.564-.916 5.04-1.68-1.38-1.421-2.043-3.558-3.6-4.801-.3 2.2-1.62 4.58-1.44 6.48zm-10.32 16.32c30.366 50.111 60.701 100.26 91.2 150.24 3.51-6.25 7.539-11.98 11.04-18.24-32.1-48.859-63.59-98.331-95.76-147.12-2.27 4.93-4.41 9.99-6.48 15.12zm-.24 6c29.957 49.152 59.099 98.225 88.8 146.88.477.78.956 2.243 1.44 1.68 1.844-1.552-.571-3.747-1.2-4.8-30.813-51.578-63.294-103.1-93.84-154.56-.307-.013-.333-.308-.72-.239-.22 2.71 3.55 7.8 5.52 11.04zm-5.52 7.44c-1.028 2.342-2.969 5.203-2.88 6.96.107 2.101 3.762 6.723 5.28 9.36 27.156 47.18 54.009 96.234 80.4 142.56 3.963-5.317 7.277-11.283 10.8-17.04-30.1-49.819-59.98-99.86-90.48-149.28-.91 2.07-1.8 4.43-3.12 7.44zm143.28 65.04c-3.084 4.951-6.637 10.646-9.841 15.6-.848 1.312-3.53 3.486-1.439 5.04 4.118-6.761 8.628-13.132 12.72-19.92-.59-.14-.51-.93-1.44-.72zm-15.12 25.44c.04-.601-.369-.751-.721-.959-1.904 3.221-3.808 6.303-5.76 9.359-1.922 3.01-4.617 5.736-5.52 9.6 2.274-.786 3.001-3.495 4.319-5.52 2.814-4.321 5.61-8.297 8.16-12.48.247-.405 1.641-1.461.721-1.68-.21.75-.6 1.32-1.2 1.68zm-27.84 44.4c-.817 1.296-3.359 3.292-1.44 4.8 3.769-6.712 8.362-12.598 11.76-19.68-.453-.026-.166-.794-.72-.72-3.12 4.83-6.53 10.72-9.6 15.6zm-11.52 18.24c-1.753 2.836-4.167 5.63-4.8 9.359 4.601-5.158 7.778-11.741 11.52-17.76-.423-.217-.396-.883-.96-.96-1.82 3.37-3.85 6.26-5.76 9.36z" fill="#000"/><path d="m167.56 213.12h2.16c.428 1.332 1.445 2.075 2.4 2.88-2.03.51-3.79-1.33-4.56-2.88z" fill="#fff"/><path d="m172.6 218.4c1.019-.293 1.946 1.569 2.88 2.16-.86.13-1.64-1.87-2.88-2.16z" fill="#fff"/><path d="m186.52 235.44c-3.977-1.784-6.413-7.187-8.88-11.28.6-.557 1.255 1.487 1.92 2.4 2.01 2.76 4.88 6.14 6.96 8.88z" fill="#fff"/><path d="m159.88 334.8c-.908-6.108 1.627-10.853 7.2-11.28 8.772 2.868 12.101 22.519 4.08 28.8-6.939-.82-9.18-6.339-10.8-12.479.244 4.024 6.585 9.531 8.64 4.32 1.863-4.725-1.382-15.045-6.48-13.921-1.84.4-2.1 2.41-2.64 4.56z" fill="#fff"/><path d="m385.96 358.32c4.718-8.242 9.677-16.242 14.64-24.239.854.105 1.052.868 1.681 1.199-9.263 15.735-18.667 31.62-28.32 47.28-1.288 2.091-2.269 4.973-4.8 6-.977-2.403 1.055-4.646 2.16-6.479 3.396-5.637 7.342-11.547 10.56-17.521.632-.604.809.603 1.44.72 1.4-1.99 5.25-4.49 2.64-6.96z" fill="#fff"/><path d="m165.64 396.48c-.286 2.355-1.65 5.709-2.16 8.64-1.937.383-3.478 1.162-5.52 1.44.84-2.76 1.562-5.638 2.4-8.4 1.8-.52 3.77-.87 5.28-1.68z" fill="#fff"/><path d="m251.56 575.28c.92.219-.474 1.274-.721 1.68-2.55 4.184-5.346 8.159-8.16 12.48-1.318 2.024-2.045 4.733-4.319 5.52.902-3.863 3.598-6.59 5.52-9.6 1.952-3.057 3.855-6.139 5.76-9.359.352.208.761.358.721.959.6-.36.99-.93 1.2-1.68z" fill="#fff"/></g></svg>