<?xml version="1.0" encoding="utf-8"?>
<!-- Generator: Adobe Illustrator 24.2.3, SVG Export Plug-In . SVG Version: 6.00 Build 0)  -->
<svg version="1.1" id="Layer_1" xmlns="http://www.w3.org/2000/svg" xmlns:xlink="http://www.w3.org/1999/xlink" x="0px" y="0px"
	 viewBox="0 0 1200 800" style="enable-background:new 0 0 1200 800;" xml:space="preserve">
<path d="M222.1,412.8h-61.8v-15.3H240c-2.1-6.5-8.8-12.5-20.7-12.5h-57.8c-13.2,0-20.9,4.9-20.9,15.6V412c0,9.3,7.9,14.6,19.5,14.6
	h62.5v16.3h-84.1c2.1,8.8,8.8,13.5,20.9,13.5h62.9c13.2,0,19.7-5.1,19.7-16V429C242,418.8,234.4,413.5,222.1,412.8z M348.2,385.1
	H272v71.3h21.6V429h56.2c15.6,0,24.2-5.3,24.2-17.9v-7.9C373.7,391.6,363.9,385.1,348.2,385.1z M355.1,407.9c0,5.1-0.9,7.9-9.3,7.9
	h-52.2l0.2-18.6h51.1c9.3,0,10.4,2.8,10.4,7.7v3H355.1z M445.7,428.6h-46l-11.4,12.1h66.4l11.4,15.8h25.5l-55-74.3l-13,16
	L445.7,428.6z M533,397.4h80.8c-2.1-8.4-10.2-12.5-21.8-12.5h-60.4c-10.4,0-20.4,4.2-20.4,15.6v39.9c0,11.4,10,15.6,20.4,15.6h61.1
	c13.9,0,18.8-3.9,21.1-13.5H533V397.4z M708.6,421.1V409h-65.3v47.4h96.4V443h-74.5v-21.8h43.4L708.6,421.1L708.6,421.1z
	 M645.6,385.1h97.3v12.5h-97.3V385.1z M802.8,385.1h-33.9l39.9,29.3c5.8-3.9,12.5-8.1,18.6-11.6L802.8,385.1z M852.1,421.6
	c-5.8,3.9-11.6,8.4-17.2,12.5l30.2,22.1h34.1L852.1,421.6z"/>
<path d="M1061.5,343.7c-185.8,10.7-271.7,90.1-291,108.9l-3.9,3.7H801C893.9,363.2,1027.4,346.7,1061.5,343.7z"/>
<g>
	<g>
		<path d="M841.7,401.25c-2.21-5.47-4.46-10.95-6.75-16.45c-1.77-3.19-4.59-6.11-5.39-9.59c-2.06,0.54-3.83,2.27-4.85,2.56
			c-1.3-0.88-1.86-3.21-2.14-4.38c2.06-0.56,2.82-2,4.9-2.55c-3.41-5.25-4.06-12.56,0.31-18.4c2.72-3.04,5.76-4.86,9.25-4.37
			c0.23,1.14,0.7,3.43,0.93,4.58c-3.47-0.48-7.55,1.61-7.58,6.48c0.76,3.46,0.73,8.34,2.82,7.82c2.33,0.64,4.74-3.55,7.91-4.24
			c1.28,0.91,1.74,3.19,1.97,4.33c-2.9,1.85-4.98,2.35-7.84,4.27c3.07,8.97,9.97,16.81,10.84,26.23
			C846.31,398.68,843.39,399.51,841.7,401.25L841.7,401.25z"/>
		<path d="M876.3,380.95c-0.15-1.1-1.48-3.11-1.64-4.21c-2.28,6.09-5.75,10.26-11.71,11.67c-3.96,0.94-9.77-2.34-9.62-7.12
			c-0.84-4.52,0.56-8.41,4.12-12.63c2.72-2.91,11.11-4.43,8.33-8.48c-4.22-6.15-13.36-1.11-16.44,5.49
			c-1.26-0.91-2.53-1.82-2.74-2.96c3.33-5.45,10.45-9.1,16.9-10.13c4.3-0.69,6.95,2.31,9.53,5.27c3.04,6.26,4.12,13.95,9.05,19.78
			C880.2,379.07,878.17,379.45,876.3,380.95C876.3,380.95,876.3,380.95,876.3,380.95z M869.95,366.27
			c-5.05,2.02-11.09,4.4-11.13,10.25c-0.42,3.6,3.38,7.39,7.22,5.4c1.84-1.55,3.69-3.08,5.4-5.69
			C872.99,372.51,871.49,369.4,869.95,366.27C869.95,366.27,869.95,366.27,869.95,366.27z"/>
		<path d="M882.2,353.18c-1.48-3.12-1.75-5.3-3.25-8.43c2.15-0.28,2.52-6.88,8,2.36c2.37-7.96,11-11.86,17.89-9.09
			c10.28,3.62,11.93,14.95,12.47,24.25c0.06,1.03-3.09,1.3-5.11,2.55c-2.61-7.11-3.1-14.42-8.04-21.47
			c-1.17-0.97-3.46-1.87-5.65-1.69c-4.29,1.41-8.44,4-8.92,9.51c0.85,7.54,5.72,13.43,5.32,19.99c0.11,1.07-2.86,2.59-3.88,2.76
			C886.19,368.09,885.26,360.5,882.2,353.18L882.2,353.18z"/>
		<path d="M961.93,349.06c-8.83,5.5-19.34,7.72-29.02,5.09c-8.58-2.66-15.55-10.53-14.98-19.9c0.77-6.23,3.84-12.49,9.44-16.5
			c6.74-4,14.86-5.66,22.96-5.15c2.31,0.15,1.13,3.01,1.11,4.97c-10.34-1.63-22.96,2.1-25.92,11.38
			c-1.96,7.18,0.67,15.32,8.32,19.11c8.72,3.77,18.29,0.68,26.04-2.91C960.94,346.15,960.88,348.07,961.93,349.06
			C961.93,349.06,961.93,349.06,961.93,349.06z"/>
		<path d="M959.66,309.39c2.35-0.77,4.72-1.5,4.72-1.5c7.74,13.25,10.32,25.69,10.67,38.88c0,0-2.23,0.81-4.43,1.66
			C965.79,335.89,962.84,322.24,959.66,309.39L959.66,309.39z"/>
		<path d="M1016.09,335.84c0.87,1.91,2.7,4.85,2.45,6.57c-1.22,0.68-4.51,0.18-6.82,0.74c0.23-1.74-0.75-2.77-0.53-4.52
			c-4.27,6.38-17.58,8.59-23.69,2.57c-5.04-6-5.64-14.48-5.13-21.9c0.06-0.93,3.57-1.44,4.64-0.37c4.12,6.08,2.38,13.25,6.31,19.19
			c4.08,4.1,10.69,3.93,14.55,0.03c5.35-6.34-2.84-13.87-2.1-21.02c2.3,0.39,4.59,0.79,6.99,0.34
			C1013.15,323.8,1015.83,329.61,1016.09,335.84C1016.09,335.84,1016.09,335.84,1016.09,335.84z"/>
		<path d="M1028.68,342.39c-1.27-12.32-6.42-24.82-5.9-37.17c0.12-0.87,4.95-0.64,4.82,0.22c2.86,5.09,4.33,10.68,4.62,15.96
			c3.26-5.41,12.8-4.78,19.68-2.88c10.21,3.73,14.64,15.01,8.69,19.98c-1.29,0.49-2.76,1.77-4.22,3.07
			c-6.58,3.34-15.09,0.7-22.4-3.35C1033.68,339.94,1043.69,340.97,1028.68,342.39L1028.68,342.39z M1033.87,332.17
			c0.68,2.74,3.71,5.08,6.87,6.61c6.61,1.39,14.1-0.96,15.18-5.67c1.27-5.5-4.67-11.41-12.85-12.61
			C1034.73,320.14,1030.25,326.24,1033.87,332.17C1033.87,332.17,1033.87,332.17,1033.87,332.17z"/>
	</g>
</g>
</svg>
