<?xml version="1.0" encoding="utf-8"?>
<!-- Generator: Adobe Illustrator 24.2.3, SVG Export Plug-In . SVG Version: 6.00 Build 0)  -->
<svg version="1.1" id="Layer_1" xmlns="http://www.w3.org/2000/svg" xmlns:xlink="http://www.w3.org/1999/xlink" x="0px" y="0px"
	 viewBox="0 0 1200 800" style="enable-background:new 0 0 1200 800;" xml:space="preserve">
<style type="text/css">
	.st0{fill:#EA8313;}
	.st1{fill:#FFFFFF;}
</style>
<path class="st0" d="M222.1,412.8h-61.8v-15.3H240c-2.1-6.5-8.8-12.5-20.7-12.5h-57.8c-13.2,0-20.9,4.9-20.9,15.6V412
	c0,9.3,7.9,14.6,19.5,14.6h62.5v16.3h-84.1c2.1,8.8,8.8,13.5,20.9,13.5h62.9c13.2,0,19.7-5.1,19.7-16V429
	C242,418.8,234.4,413.5,222.1,412.8z M348.2,385.1H272v71.3h21.6V429h56.2c15.6,0,24.2-5.3,24.2-17.9v-7.9
	C373.7,391.6,363.9,385.1,348.2,385.1z M355.1,407.9c0,5.1-0.9,7.9-9.3,7.9h-52.2l0.2-18.6h51.1c9.3,0,10.4,2.8,10.4,7.7v3H355.1z
	 M445.7,428.6h-46l-11.4,12.1h66.4l11.4,15.8h25.5l-55-74.3l-13,16L445.7,428.6z M533,397.4h80.8c-2.1-8.4-10.2-12.5-21.8-12.5
	h-60.4c-10.4,0-20.4,4.2-20.4,15.6v39.9c0,11.4,10,15.6,20.4,15.6h61.1c13.9,0,18.8-3.9,21.1-13.5H533V397.4z M708.6,421.1V409
	h-65.3v47.4h96.4V443h-74.5v-21.8h43.4L708.6,421.1L708.6,421.1z M645.6,385.1h97.3v12.5h-97.3V385.1z M802.8,385.1h-33.9l39.9,29.3
	c5.8-3.9,12.5-8.1,18.6-11.6L802.8,385.1z M852.1,421.6c-5.8,3.9-11.6,8.4-17.2,12.5l30.2,22.1h34.1L852.1,421.6z"/>
<path class="st1" d="M1061.5,343.75c-185.8,10.71-271.7,90.22-291,109.04l-3.9,3.7H801C893.9,363.28,1027.4,346.76,1061.5,343.75z"
	/>
<g>
	<g>
		<path class="st1" d="M841.7,401.38c-2.21-5.48-4.46-10.96-6.75-16.47c-1.77-3.19-4.59-6.12-5.39-9.6
			c-2.06,0.54-3.83,2.27-4.85,2.56c-1.3-0.88-1.86-3.21-2.14-4.39c2.06-0.56,2.82-2,4.9-2.55c-3.41-5.26-4.06-12.58,0.31-18.42
			c2.72-3.04,5.76-4.87,9.25-4.38c0.23,1.14,0.7,3.43,0.93,4.59c-3.47-0.48-7.55,1.61-7.58,6.49c0.76,3.46,0.73,8.35,2.82,7.83
			c2.33,0.64,4.74-3.55,7.91-4.25c1.28,0.91,1.74,3.19,1.97,4.34c-2.9,1.85-4.98,2.35-7.84,4.28c3.07,8.98,9.97,16.83,10.84,26.26
			C846.31,398.8,843.39,399.64,841.7,401.38L841.7,401.38z"/>
		<path class="st1" d="M876.3,381.05c-0.15-1.1-1.48-3.11-1.64-4.22c-2.28,6.1-5.75,10.27-11.71,11.69
			c-3.96,0.94-9.77-2.34-9.62-7.13c-0.84-4.53,0.56-8.42,4.12-12.65c2.72-2.91,11.11-4.44,8.33-8.49
			c-4.22-6.16-13.36-1.11-16.44,5.5c-1.26-0.91-2.53-1.82-2.74-2.96c3.33-5.46,10.45-9.11,16.9-10.14c4.3-0.69,6.95,2.31,9.53,5.28
			c3.04,6.27,4.12,13.97,9.05,19.81C880.2,379.17,878.17,379.55,876.3,381.05L876.3,381.05z M869.95,366.35
			c-5.05,2.02-11.09,4.41-11.13,10.26c-0.42,3.6,3.38,7.4,7.22,5.41c1.84-1.55,3.69-3.08,5.4-5.7
			C872.99,372.6,871.49,369.49,869.95,366.35L869.95,366.35z"/>
		<path class="st1" d="M882.2,353.24c-1.48-3.12-1.75-5.31-3.25-8.44c2.15-0.28,2.52-6.89,8,2.36c2.37-7.97,11-11.88,17.89-9.1
			c10.28,3.62,11.93,14.97,12.47,24.28c0.06,1.03-3.09,1.3-5.11,2.55c-2.61-7.12-3.1-14.44-8.04-21.5
			c-1.17-0.97-3.46-1.87-5.65-1.69c-4.29,1.41-8.44,4.01-8.92,9.52c0.85,7.55,5.72,13.45,5.32,20.02c0.11,1.07-2.86,2.59-3.88,2.76
			C886.19,368.17,885.26,360.57,882.2,353.24L882.2,353.24z"/>
		<path class="st1" d="M961.93,349.12c-8.83,5.51-19.34,7.73-29.02,5.1c-8.58-2.66-15.55-10.54-14.98-19.93
			c0.77-6.24,3.84-12.51,9.44-16.52c6.74-4.01,14.86-5.67,22.96-5.16c2.31,0.15,1.13,3.01,1.11,4.98
			c-10.34-1.63-22.96,2.1-25.92,11.4c-1.96,7.19,0.67,15.34,8.32,19.14c8.72,3.77,18.29,0.68,26.04-2.91
			C960.94,346.2,960.88,348.13,961.93,349.12L961.93,349.12z"/>
		<path class="st1" d="M959.66,309.4c2.35-0.77,4.72-1.5,4.72-1.5c7.74,13.27,10.32,25.72,10.67,38.93c0,0-2.23,0.81-4.43,1.66
			C965.79,335.93,962.84,322.26,959.66,309.4L959.66,309.4z"/>
		<path class="st1" d="M1016.09,335.88c0.87,1.91,2.7,4.86,2.45,6.58c-1.22,0.68-4.51,0.18-6.82,0.74c0.23-1.74-0.75-2.77-0.53-4.53
			c-4.27,6.39-17.58,8.6-23.69,2.57c-5.04-6.01-5.64-14.5-5.13-21.93c0.06-0.93,3.57-1.44,4.64-0.37
			c4.12,6.09,2.38,13.27,6.31,19.22c4.08,4.11,10.69,3.94,14.55,0.03c5.35-6.35-2.84-13.89-2.1-21.05c2.3,0.39,4.59,0.79,6.99,0.34
			C1013.15,323.83,1015.83,329.64,1016.09,335.88L1016.09,335.88z"/>
		<path class="st1" d="M1028.68,342.44c-1.27-12.34-6.42-24.85-5.9-37.22c0.12-0.87,4.95-0.64,4.82,0.22
			c2.86,5.1,4.33,10.69,4.62,15.98c3.26-5.42,12.8-4.79,19.68-2.88c10.21,3.73,14.64,15.03,8.69,20.01
			c-1.29,0.49-2.76,1.77-4.22,3.07c-6.58,3.34-15.09,0.7-22.4-3.35C1033.68,339.99,1043.69,341.02,1028.68,342.44L1028.68,342.44z
			 M1033.87,332.21c0.68,2.74,3.71,5.09,6.87,6.62c6.61,1.39,14.1-0.96,15.18-5.68c1.27-5.51-4.67-11.43-12.85-12.63
			C1034.73,320.16,1030.25,326.27,1033.87,332.21L1033.87,332.21z"/>
	</g>
</g>
</svg>
